<?xml version="1.0" encoding="UTF-8" standalone="no"?>
<!DOCTYPE svg PUBLIC "-//W3C//DTD SVG 1.1//EN"
"http://www.w3.org/Graphics/SVG/1.1/DTD/svg11.dtd">
<svg viewBox="0 0 2933 7308" version="1.1" xmlns="http://www.w3.org/2000/svg" xmlns:xlink="http://www.w3.org/1999/xlink">
<defs>
<clipPath id="c0"><path d="M0,258.2V0H329.2V258.2Z"/></clipPath>
<clipPath id="c1"><path d="M0,7308.9V0H2933.3V7308.9Z"/></clipPath>
<style type="text/css"><![CDATA[
.g0{
fill: #FFFFFF;
}
.g1{
fill: none;
stroke: #707070;
stroke-width: 1.527;
stroke-linecap: butt;
stroke-linejoin: miter;
stroke-opacity: 0.5412;
}
.g2{
fill: #903FFF;
fill-opacity: 0.6314;
}
.g3{
fill: none;
stroke: #707070;
stroke-width: 1.527;
stroke-linecap: butt;
stroke-linejoin: miter;
}
.g4{
fill: #3F3D56;
}
.g5{
fill: #FFB8B8;
}
.g6{
fill: #2F2E41;
}
.g7{
fill: #D0CDE1;
}
.g8{
fill: #575A89;
}
.g9{
fill: #6C63FF;
}
.ga{
fill: #F5F5F5;
fill-opacity: 0.65880007;
}
.gb{
fill: #FFB9B9;
}
.gc{
fill-opacity: 0.102;
}
.gd{
fill: #F2F2F2;
}
.ge{
fill: #6C63FF;
fill-opacity: 0.2;
}
.gf{
fill: none;
stroke: #535461;
stroke-width: 3.055;
stroke-linecap: butt;
stroke-linejoin: miter;
}
.gg{
fill: #F5F5F5;
fill-opacity: 0.2;
}
.gh{
fill: #E14B5A;
}
.gi{
fill: #F7C4A7;
}
.gj{
fill: #575988;
}
.gk{
fill: #632652;
}
.gl{
fill: #535461;
}
.gm{
fill: none;
stroke: #000000;
stroke-width: 1.527;
stroke-linecap: butt;
stroke-linejoin: miter;
stroke-opacity: 0.102;
}
.gn{
fill: #6A5C99;
}
.go{
fill: #FFD037;
}
.gp{
fill: #D6D6E3;
}
.gq{
fill: #575988;
fill-opacity: 0.102;
}
.gr{
fill: #8E40FF;
fill-opacity: 0.30200002;
}
.gs{
}
.gt{
fill: #878181;
fill-opacity: 0.70199996;
}
.gu{
fill: #C9AFEC;
fill-opacity: 0.30200002;
}
]]></style>
</defs>
<path d="M0,0H2933.3V7308.9H0V0Z" class="g0"/>
<image x="92" y="353" width="1359" height="302" xlink:href="shade/1.png"/>
<image x="419" y="857" width="678" height="238" xlink:href="shade/2.png"/>
<path d="M453.8,985.4V967.1c0,-2.6,.1,-5.2,.3,-7.8c.3,-2.6,.7,-5.2,1.2,-7.7c.5,-2.6,1.1,-5.1,1.9,-7.6c.7,-2.5,1.6,-4.9,2.6,-7.3c1,-2.4,2.1,-4.8,3.3,-7.1c1.3,-2.3,2.6,-4.5,4,-6.7c1.5,-2.1,3,-4.2,4.7,-6.2c1.6,-2,3.4,-4,5.2,-5.8c1.9,-1.8,3.8,-3.6,5.8,-5.2c2,-1.7,4.1,-3.2,6.3,-4.7c2.1,-1.4,4.3,-2.8,6.6,-4c2.3,-1.2,4.7,-2.3,7.1,-3.3c2.4,-1,4.8,-1.9,7.3,-2.6c2.5,-.8,5,-1.4,7.6,-1.9c2.5,-.5,5.1,-.9,7.7,-1.2c2.6,-.2,5.2,-.4,7.8,-.4H991.5c2.6,0,5.2,.2,7.8,.4c2.6,.3,5.2,.7,7.7,1.2c2.6,.5,5.1,1.1,7.6,1.9c2.5,.7,4.9,1.6,7.3,2.6c2.4,1,4.8,2.1,7.1,3.3c2.3,1.2,4.5,2.6,6.7,4c2.1,1.5,4.2,3,6.2,4.7c2,1.6,4,3.4,5.8,5.2c1.8,1.8,3.6,3.8,5.2,5.8c1.7,2,3.2,4.1,4.7,6.2c1.4,2.2,2.8,4.4,4,6.7c1.2,2.3,2.3,4.7,3.3,7.1c1,2.4,1.9,4.8,2.7,7.3c.7,2.5,1.3,5,1.8,7.6c.6,2.5,.9,5.1,1.2,7.7c.2,2.6,.4,5.2,.4,7.8v18.3c0,2.6,-.2,5.2,-.4,7.8c-.3,2.6,-.6,5.2,-1.2,7.7c-.5,2.6,-1.1,5.1,-1.8,7.6c-.8,2.5,-1.7,4.9,-2.7,7.3c-1,2.4,-2.1,4.8,-3.3,7.1c-1.2,2.3,-2.6,4.5,-4,6.7c-1.5,2.1,-3,4.2,-4.7,6.2c-1.6,2,-3.4,4,-5.2,5.8c-1.8,1.8,-3.8,3.6,-5.8,5.2c-2,1.7,-4.1,3.2,-6.2,4.7c-2.2,1.4,-4.4,2.8,-6.7,4c-2.3,1.2,-4.7,2.3,-7.1,3.3c-2.4,1,-4.8,1.9,-7.3,2.6c-2.5,.8,-5,1.4,-7.6,1.9c-2.5,.5,-5.1,.9,-7.7,1.2c-2.6,.2,-5.2,.4,-7.8,.4H533.2c-2.6,0,-5.2,-.2,-7.8,-.4c-2.6,-.3,-5.2,-.7,-7.7,-1.2c-2.6,-.5,-5.1,-1.1,-7.6,-1.9c-2.5,-.7,-4.9,-1.6,-7.3,-2.6c-2.4,-1,-4.8,-2.1,-7.1,-3.3c-2.3,-1.2,-4.5,-2.6,-6.6,-4c-2.2,-1.5,-4.3,-3,-6.3,-4.7c-2,-1.6,-3.9,-3.4,-5.8,-5.2c-1.8,-1.8,-3.6,-3.8,-5.2,-5.8c-1.7,-2,-3.2,-4.1,-4.7,-6.2c-1.4,-2.2,-2.7,-4.4,-4,-6.7c-1.2,-2.3,-2.3,-4.7,-3.3,-7.1c-1,-2.4,-1.9,-4.8,-2.6,-7.3c-.8,-2.5,-1.4,-5,-1.9,-7.6c-.5,-2.5,-.9,-5.1,-1.2,-7.7c-.2,-2.6,-.3,-5.2,-.3,-7.8Z" class="g0"/>
<path d="M454.5,985.4V967.1c0,-2.6,.1,-5.2,.4,-7.7c.2,-2.6,.6,-5.1,1.1,-7.7c.5,-2.5,1.2,-5,1.9,-7.5c.7,-2.4,1.6,-4.8,2.6,-7.2c1,-2.4,2.1,-4.7,3.3,-7c1.2,-2.3,2.5,-4.5,4,-6.6c1.4,-2.2,2.9,-4.2,4.6,-6.2c1.6,-2,3.3,-3.9,5.2,-5.8c1.8,-1.8,3.7,-3.5,5.7,-5.1c2,-1.7,4,-3.2,6.2,-4.6c2.1,-1.5,4.3,-2.8,6.6,-4c2.3,-1.2,4.6,-2.3,7,-3.3c2.4,-1,4.8,-1.9,7.3,-2.6c2.4,-.8,4.9,-1.4,7.4,-1.9c2.6,-.5,5.1,-.9,7.7,-1.1c2.5,-.3,5.1,-.4,7.7,-.4H991.5c2.6,0,5.2,.1,7.7,.4c2.6,.2,5.2,.6,7.7,1.1c2.5,.5,5,1.1,7.5,1.9c2.4,.7,4.9,1.6,7.2,2.6c2.4,1,4.7,2.1,7,3.3c2.3,1.2,4.5,2.5,6.6,4c2.2,1.4,4.3,2.9,6.2,4.6c2,1.6,3.9,3.3,5.8,5.1c1.8,1.9,3.5,3.8,5.1,5.8c1.7,2,3.2,4,4.6,6.2c1.5,2.1,2.8,4.3,4,6.6c1.2,2.3,2.3,4.6,3.3,7c1,2.4,1.9,4.8,2.6,7.2c.8,2.5,1.4,5,1.9,7.5c.5,2.6,.9,5.1,1.1,7.7c.3,2.5,.4,5.1,.4,7.7v18.3c0,2.6,-.1,5.2,-.4,7.7c-.2,2.6,-.6,5.1,-1.1,7.7c-.5,2.5,-1.1,5,-1.9,7.5c-.7,2.4,-1.6,4.8,-2.6,7.2c-1,2.4,-2.1,4.7,-3.3,7c-1.2,2.3,-2.5,4.5,-4,6.6c-1.4,2.2,-2.9,4.2,-4.6,6.2c-1.6,2,-3.3,3.9,-5.1,5.8c-1.9,1.8,-3.8,3.5,-5.8,5.1c-1.9,1.7,-4,3.2,-6.2,4.6c-2.1,1.5,-4.3,2.8,-6.6,4c-2.3,1.2,-4.6,2.3,-7,3.3c-2.3,1,-4.8,1.9,-7.2,2.6c-2.5,.8,-5,1.4,-7.5,1.9c-2.5,.5,-5.1,.9,-7.7,1.1c-2.5,.3,-5.1,.4,-7.7,.4H533.2c-2.6,0,-5.2,-.1,-7.7,-.4c-2.6,-.2,-5.1,-.6,-7.7,-1.1c-2.5,-.5,-5,-1.1,-7.4,-1.9c-2.5,-.7,-4.9,-1.6,-7.3,-2.6c-2.4,-1,-4.7,-2.1,-7,-3.3c-2.3,-1.2,-4.5,-2.5,-6.6,-4c-2.2,-1.4,-4.2,-2.9,-6.2,-4.6c-2,-1.6,-3.9,-3.3,-5.7,-5.1c-1.9,-1.9,-3.6,-3.8,-5.2,-5.8c-1.7,-2,-3.2,-4,-4.6,-6.2c-1.5,-2.1,-2.8,-4.3,-4,-6.6c-1.2,-2.3,-2.3,-4.6,-3.3,-7c-1,-2.4,-1.9,-4.8,-2.6,-7.2c-.7,-2.5,-1.4,-5,-1.9,-7.5c-.5,-2.6,-.9,-5.1,-1.1,-7.7c-.3,-2.5,-.4,-5.1,-.4,-7.7Z" class="g1"/>
<image x="478" y="922" width="110" height="108" xlink:href="shade/3.png"/>
<image x="419" y="1111" width="678" height="238" xlink:href="shade/4.png"/>
<path d="M453.8,1239v-18.3c0,-2.6,.1,-5.2,.3,-7.8c.3,-2.6,.7,-5.2,1.2,-7.7c.5,-2.6,1.1,-5.1,1.9,-7.6c.7,-2.5,1.6,-4.9,2.6,-7.3c1,-2.4,2.1,-4.8,3.3,-7.1c1.3,-2.3,2.6,-4.5,4,-6.6c1.5,-2.2,3,-4.3,4.7,-6.3c1.6,-2,3.4,-3.9,5.2,-5.8c1.9,-1.8,3.8,-3.6,5.8,-5.2c2,-1.7,4.1,-3.2,6.3,-4.7c2.1,-1.4,4.3,-2.7,6.6,-4c2.3,-1.2,4.7,-2.3,7.1,-3.3c2.4,-1,4.8,-1.9,7.3,-2.6c2.5,-.8,5,-1.4,7.6,-1.9c2.5,-.5,5.1,-.9,7.7,-1.2c2.6,-.2,5.2,-.3,7.8,-.3H991.5c2.6,0,5.2,.1,7.8,.3c2.6,.3,5.2,.7,7.7,1.2c2.6,.5,5.1,1.1,7.6,1.9c2.5,.7,4.9,1.6,7.3,2.6c2.4,1,4.8,2.1,7.1,3.3c2.3,1.3,4.5,2.6,6.7,4c2.1,1.5,4.2,3,6.2,4.7c2,1.6,4,3.4,5.8,5.2c1.8,1.9,3.6,3.8,5.2,5.8c1.7,2,3.2,4.1,4.7,6.3c1.4,2.1,2.8,4.3,4,6.6c1.2,2.3,2.3,4.7,3.3,7.1c1,2.4,1.9,4.8,2.7,7.3c.7,2.5,1.3,5,1.8,7.6c.6,2.5,.9,5.1,1.2,7.7c.2,2.6,.4,5.2,.4,7.8V1239c0,2.6,-.2,5.2,-.4,7.8c-.3,2.6,-.6,5.2,-1.2,7.7c-.5,2.6,-1.1,5.1,-1.8,7.6c-.8,2.5,-1.7,4.9,-2.7,7.3c-1,2.4,-2.1,4.8,-3.3,7.1c-1.2,2.3,-2.6,4.5,-4,6.7c-1.5,2.1,-3,4.2,-4.7,6.2c-1.6,2,-3.4,4,-5.2,5.8c-1.8,1.8,-3.8,3.6,-5.8,5.2c-2,1.7,-4.1,3.2,-6.2,4.7c-2.2,1.4,-4.4,2.8,-6.7,4c-2.3,1.2,-4.7,2.3,-7.1,3.3c-2.4,1,-4.8,1.9,-7.3,2.7c-2.5,.7,-5,1.3,-7.6,1.8c-2.5,.6,-5.1,.9,-7.7,1.2c-2.6,.2,-5.2,.4,-7.8,.4H533.2c-2.6,0,-5.2,-.2,-7.8,-.4c-2.6,-.3,-5.2,-.6,-7.7,-1.2c-2.6,-.5,-5.1,-1.1,-7.6,-1.8c-2.5,-.8,-4.9,-1.7,-7.3,-2.7c-2.4,-1,-4.8,-2.1,-7.1,-3.3c-2.3,-1.2,-4.5,-2.6,-6.6,-4c-2.2,-1.5,-4.3,-3,-6.3,-4.7c-2,-1.6,-3.9,-3.4,-5.8,-5.2c-1.8,-1.8,-3.6,-3.8,-5.2,-5.8c-1.7,-2,-3.2,-4.1,-4.7,-6.2c-1.4,-2.2,-2.7,-4.4,-4,-6.7c-1.2,-2.3,-2.3,-4.7,-3.3,-7.1c-1,-2.4,-1.9,-4.8,-2.6,-7.3c-.8,-2.5,-1.4,-5,-1.9,-7.6c-.5,-2.5,-.9,-5.1,-1.2,-7.7c-.2,-2.6,-.3,-5.2,-.3,-7.8Z" class="g0"/>
<path d="M454.5,1239v-18.3c0,-2.6,.1,-5.2,.4,-7.7c.2,-2.6,.6,-5.1,1.1,-7.7c.5,-2.5,1.2,-5,1.9,-7.4c.7,-2.5,1.6,-4.9,2.6,-7.3c1,-2.4,2.1,-4.7,3.3,-7c1.2,-2.3,2.5,-4.5,4,-6.6c1.4,-2.2,2.9,-4.2,4.6,-6.2c1.6,-2,3.3,-3.9,5.2,-5.7c1.8,-1.9,3.7,-3.6,5.7,-5.2c2,-1.7,4,-3.2,6.2,-4.6c2.1,-1.5,4.3,-2.8,6.6,-4c2.3,-1.2,4.6,-2.3,7,-3.3c2.4,-1,4.8,-1.8,7.3,-2.6c2.4,-.7,4.9,-1.4,7.4,-1.9c2.6,-.5,5.1,-.9,7.7,-1.1c2.5,-.3,5.1,-.4,7.7,-.4H991.5c2.6,0,5.2,.1,7.7,.4c2.6,.2,5.2,.6,7.7,1.1c2.5,.5,5,1.2,7.5,1.9c2.4,.8,4.9,1.6,7.2,2.6c2.4,1,4.7,2.1,7,3.3c2.3,1.2,4.5,2.5,6.6,4c2.2,1.4,4.3,2.9,6.2,4.6c2,1.6,3.9,3.3,5.8,5.2c1.8,1.8,3.5,3.7,5.1,5.7c1.7,2,3.2,4,4.6,6.2c1.5,2.1,2.8,4.3,4,6.6c1.2,2.3,2.3,4.6,3.3,7c1,2.4,1.9,4.8,2.6,7.3c.8,2.4,1.4,4.9,1.9,7.4c.5,2.6,.9,5.1,1.1,7.7c.3,2.5,.4,5.1,.4,7.7V1239c0,2.6,-.1,5.2,-.4,7.7c-.2,2.6,-.6,5.2,-1.1,7.7c-.5,2.5,-1.1,5,-1.9,7.5c-.7,2.4,-1.6,4.9,-2.6,7.2c-1,2.4,-2.1,4.7,-3.3,7c-1.2,2.3,-2.5,4.5,-4,6.6c-1.4,2.2,-2.9,4.3,-4.6,6.2c-1.6,2,-3.3,3.9,-5.1,5.8c-1.9,1.8,-3.8,3.5,-5.8,5.1c-1.9,1.7,-4,3.2,-6.2,4.6c-2.1,1.5,-4.3,2.8,-6.6,4c-2.3,1.2,-4.6,2.3,-7,3.3c-2.3,1,-4.8,1.9,-7.2,2.6c-2.5,.8,-5,1.4,-7.5,1.9c-2.5,.5,-5.1,.9,-7.7,1.1c-2.5,.3,-5.1,.4,-7.7,.4H533.2c-2.6,0,-5.2,-.1,-7.7,-.4c-2.6,-.2,-5.1,-.6,-7.7,-1.1c-2.5,-.5,-5,-1.1,-7.4,-1.9c-2.5,-.7,-4.9,-1.6,-7.3,-2.6c-2.4,-1,-4.7,-2.1,-7,-3.3c-2.3,-1.2,-4.5,-2.5,-6.6,-4c-2.2,-1.4,-4.2,-2.9,-6.2,-4.6c-2,-1.6,-3.9,-3.3,-5.7,-5.1c-1.9,-1.9,-3.6,-3.8,-5.2,-5.8c-1.7,-1.9,-3.2,-4,-4.6,-6.2c-1.5,-2.1,-2.8,-4.3,-4,-6.6c-1.2,-2.3,-2.3,-4.6,-3.3,-7c-1,-2.3,-1.9,-4.8,-2.6,-7.2c-.7,-2.5,-1.4,-5,-1.9,-7.5c-.5,-2.5,-.9,-5.1,-1.1,-7.7c-.3,-2.5,-.4,-5.1,-.4,-7.7Z" class="g1"/>
<image x="482" y="1175" width="108" height="110" xlink:href="shade/5.png"/>
<g clip-path="url(#c0)">
<path d="M328,-61c0,0,-58.8,224.1,-86.4,298.9C214,312.7,-51,145,-51,145V-149.9L328,-61Z" class="g2"/>
<path d="M328,-61c0,0,-58.8,224.1,-86.4,298.9C214,312.7,-51,145,-51,145V-149.9L328,-61Z" class="g3"/>
</g>
<image x="1536" y="-22" width="1411" height="1641" xlink:href="shade/6.png"/>
<image x="1510" y="-634" width="1840" height="2221" xlink:href="shade/7.png"/>
<path d="M1729.4,1436.1c0,-.7,.1,-1.4,.2,-2.1c.2,-.7,.4,-1.3,.7,-2c.2,-.6,.6,-1.2,.9,-1.8c.4,-.6,.9,-1.2,1.4,-1.7c.5,-.4,1,-.9,1.6,-1.3c.6,-.4,1.2,-.7,1.8,-1c.7,-.2,1.4,-.4,2.1,-.6c.6,-.1,1.3,-.2,2,-.2h227.7c.7,0,1.4,.1,2.1,.2c.7,.2,1.3,.4,2,.6c.6,.3,1.2,.6,1.8,1c.6,.4,1.1,.9,1.6,1.3c.5,.5,1,1.1,1.4,1.7c.4,.6,.7,1.2,1,1.8c.2,.7,.4,1.3,.6,2c.1,.7,.2,1.4,.2,2.1c0,.7,-.1,1.4,-.2,2.1c-.2,.7,-.4,1.4,-.6,2c-.3,.7,-.6,1.3,-1,1.9c-.4,.5,-.9,1.1,-1.4,1.6c-.5,.5,-1,.9,-1.6,1.3c-.6,.4,-1.2,.7,-1.8,1c-.7,.3,-1.3,.5,-2,.6c-.7,.1,-1.4,.2,-2.1,.2H1740.1c-.7,0,-1.4,-.1,-2,-.2c-.7,-.1,-1.4,-.3,-2.1,-.6c-.6,-.3,-1.2,-.6,-1.8,-1c-.6,-.4,-1.1,-.8,-1.6,-1.3c-.5,-.5,-1,-1.1,-1.4,-1.6c-.3,-.6,-.7,-1.2,-.9,-1.9c-.3,-.6,-.5,-1.3,-.7,-2c-.1,-.7,-.2,-1.4,-.2,-2.1Z" class="g0"/>
<path d="M1721.3,931.5c14.4,-11.7,31.1,-20.3,48.9,-25.5c49.9,-14.3,101.5,-.5,151.4,12.9c27,7.2,54.8,14.7,82.3,17.7c44.1,5,85.1,-1.9,118.7,-19.8c37.8,-20.2,65,-54.8,72.8,-92.8c1,-4.8,1.6,-9.6,2,-14.5c-3.7,2.3,-7.5,4.5,-11.2,6.8c-39.5,23.4,-94.9,45.3,-135,16.6c-15.4,-11,-25.4,-29.4,-27.4,-50.5c-2.1,-22.6,5.1,-45.1,19.4,-60.2c2.4,-2.5,4.9,-4.8,7.5,-6.9c29.1,-23.2,74.9,-24.4,107.1,-1.5c27.2,19.4,43.4,54.5,42.9,90c23.2,-14.6,45.8,-30.3,67.4,-47.3l1.9,2.4c-22.3,17.4,-45.5,33.7,-69.5,48.6c-.2,5.8,-.9,11.5,-2.1,17.2c-8,38.7,-35.8,74.2,-74.3,94.8c-34.2,18.2,-75.9,25.2,-120.5,20.2c-27.7,-3.1,-55.7,-10.6,-82.8,-17.9C1869,908,1820.1,894.9,1771,908.9c-49.3,14.1,-89.2,57.4,-99.1,107.8c-10,50.3,10.3,105.5,50.5,137.4l-1.9,2.4c-41.1,-32.6,-61.8,-89,-51.6,-140.4c6.6,-33.3,25.9,-63.5,52.4,-84.6ZM2197.6,805.8c1.1,-35.3,-14.6,-70.3,-41.6,-89.5c-33.9,-24.2,-83.5,-20.6,-110.5,8c-13.8,14.5,-20.7,36.1,-18.6,57.8c1.9,20.2,11.4,37.8,26.1,48.3c38.7,27.7,93,6.2,131.6,-16.8c4.3,-2.5,8.7,-5.2,13,-7.8Z" class="g4"/>
<path d="M1892.2,1151.9c6.9,0,13.9,0,20.8,0c7,0,13.9,.1,20.9,.1c6.9,0,13.8,.1,20.7,.1c6.9,.1,13.7,.1,20.6,.2c6.8,0,13.6,.1,20.3,.2c6.8,.1,13.5,.2,20.2,.2c6.6,.1,13.2,.2,19.8,.4c6.6,.1,13,.2,19.5,.3c6.4,.1,12.8,.3,19.1,.4c6.3,.1,12.5,.3,18.6,.4c6.2,.2,12.2,.3,18.2,.5c6,.2,11.9,.4,17.6,.5c5.8,.2,11.5,.4,17.1,.6c5.6,.2,11.1,.4,16.5,.6c5.4,.2,10.6,.4,15.8,.6c5.2,.3,10.2,.5,15.1,.7c4.9,.2,9.7,.5,14.4,.7c4.7,.3,9.2,.5,13.7,.8c4.4,.2,8.7,.5,12.8,.7c4.2,.3,8.2,.5,12,.8c3.9,.3,7.6,.6,11.2,.8c3.6,.3,7,.6,10.3,.9c3.3,.3,6.4,.6,9.4,.9c3,.3,5.8,.6,8.5,.9c2.6,.3,5.1,.6,7.5,.9c2.3,.3,4.5,.6,6.5,.9c2,.3,3.9,.6,5.6,.9c1.7,.3,3.2,.7,4.6,1c1.3,.3,2.5,.6,3.5,.9c1.1,.4,1.9,.7,2.6,1c.7,.3,1.2,.7,1.5,1c.4,.3,.5,.6,.5,1c0,.3,-.1,.6,-.5,.9c-.3,.4,-.8,.7,-1.5,1c-.7,.3,-1.5,.6,-2.6,1c-1,.3,-2.2,.6,-3.5,.9c-1.4,.3,-2.9,.7,-4.6,1c-1.7,.3,-3.6,.6,-5.6,.9c-2,.3,-4.2,.6,-6.5,.9c-2.4,.3,-4.9,.7,-7.5,1c-2.7,.3,-5.5,.5,-8.5,.8c-3,.3,-6.1,.6,-9.4,.9c-3.3,.3,-6.7,.6,-10.3,.9c-3.6,.2,-7.3,.5,-11.2,.8c-3.8,.3,-7.8,.5,-12,.8c-4.1,.2,-8.4,.5,-12.8,.8c-4.5,.2,-9,.4,-13.7,.7c-4.7,.2,-9.5,.5,-14.4,.7c-4.9,.2,-9.9,.4,-15.1,.7c-5.2,.2,-10.4,.4,-15.8,.6c-5.4,.2,-10.9,.4,-16.5,.6c-5.6,.2,-11.3,.4,-17.1,.6c-5.7,.1,-11.6,.3,-17.6,.5c-6,.2,-12,.3,-18.2,.5c-6.1,.1,-12.3,.3,-18.6,.4c-6.3,.1,-12.7,.3,-19.1,.4c-6.5,.1,-12.9,.2,-19.5,.4c-6.6,.1,-13.2,.2,-19.8,.3c-6.7,.1,-13.4,.1,-20.2,.2c-6.7,.1,-13.5,.2,-20.3,.2c-6.9,.1,-13.7,.1,-20.6,.2c-6.9,0,-13.8,.1,-20.7,.1c-7,0,-13.9,.1,-20.9,.1c-6.9,0,-13.9,0,-20.8,0c-7,0,-14,0,-20.9,0c-7,0,-13.9,-.1,-20.9,-.1c-6.9,0,-13.8,-.1,-20.7,-.1c-6.9,-.1,-13.7,-.1,-20.6,-.2c-6.8,0,-13.6,-.1,-20.3,-.2c-6.8,-.1,-13.5,-.1,-20.2,-.2c-6.6,-.1,-13.2,-.2,-19.8,-.3c-6.5,-.2,-13,-.3,-19.5,-.4c-6.4,-.1,-12.8,-.3,-19.1,-.4c-6.3,-.1,-12.5,-.3,-18.6,-.4c-6.2,-.2,-12.2,-.3,-18.2,-.5c-6,-.2,-11.8,-.4,-17.6,-.5c-5.8,-.2,-11.5,-.4,-17.1,-.6c-5.6,-.2,-11.1,-.4,-16.5,-.6c-5.4,-.2,-10.6,-.4,-15.8,-.6c-5.1,-.3,-10.2,-.5,-15.1,-.7c-4.9,-.2,-9.7,-.5,-14.4,-.7c-4.7,-.3,-9.2,-.5,-13.7,-.7c-4.4,-.3,-8.7,-.6,-12.8,-.8c-4.1,-.3,-8.2,-.5,-12,-.8c-3.9,-.3,-7.6,-.6,-11.2,-.8c-3.6,-.3,-7,-.6,-10.3,-.9c-3.3,-.3,-6.4,-.6,-9.4,-.9c-3,-.3,-5.8,-.5,-8.4,-.8c-2.7,-.3,-5.2,-.7,-7.6,-1c-2.3,-.3,-4.5,-.6,-6.5,-.9c-2,-.3,-3.9,-.6,-5.6,-.9c-1.7,-.3,-3.2,-.7,-4.6,-1c-1.3,-.3,-2.5,-.6,-3.5,-.9c-1,-.4,-1.9,-.7,-2.6,-1c-.7,-.3,-1.2,-.6,-1.5,-1c-.4,-.3,-.5,-.6,-.5,-.9c0,-.4,.1,-.7,.5,-1c.3,-.3,.8,-.7,1.5,-1c.7,-.3,1.6,-.6,2.6,-1c1,-.3,2.2,-.6,3.5,-.9c1.4,-.3,2.9,-.7,4.6,-1c1.7,-.3,3.6,-.6,5.6,-.9c2,-.3,4.2,-.6,6.5,-.9c2.4,-.3,4.9,-.6,7.6,-.9c2.6,-.3,5.4,-.6,8.4,-.9c3,-.3,6.1,-.6,9.4,-.9c3.3,-.3,6.7,-.6,10.3,-.9c3.6,-.2,7.3,-.5,11.2,-.8c3.8,-.3,7.9,-.5,12,-.8c4.1,-.2,8.4,-.5,12.8,-.7c4.5,-.3,9,-.5,13.7,-.8c4.7,-.2,9.5,-.5,14.4,-.7c4.9,-.2,10,-.4,15.1,-.7c5.2,-.2,10.4,-.4,15.8,-.6c5.4,-.2,10.9,-.4,16.5,-.6c5.6,-.2,11.3,-.4,17.1,-.6c5.8,-.1,11.6,-.3,17.6,-.5c6,-.2,12,-.3,18.2,-.5c6.1,-.1,12.3,-.3,18.6,-.4c6.3,-.1,12.7,-.3,19.1,-.4c6.5,-.1,13,-.2,19.5,-.3c6.6,-.2,13.2,-.3,19.8,-.4c6.7,0,13.4,-.1,20.2,-.2c6.7,-.1,13.5,-.2,20.3,-.2c6.9,-.1,13.7,-.1,20.6,-.2c6.9,0,13.8,-.1,20.7,-.1c7,0,13.9,-.1,20.9,-.1c6.9,0,13.9,0,20.9,0Z" class="g4"/>
<path d="M1842.3,1211.5c2.5,0,4.9,0,7.4,0c2.5,0,4.9,0,7.4,.1c2.5,0,4.9,0,7.4,.1c2.4,0,4.9,.1,7.3,.2c2.4,0,4.8,.1,7.2,.2c2.4,0,4.8,.1,7.2,.2c2.4,.1,4.7,.2,7,.3c2.4,.1,4.7,.3,7,.4c2.2,.1,4.5,.2,6.7,.4c2.3,.1,4.5,.3,6.7,.4c2.2,.2,4.3,.3,6.4,.5c2.2,.2,4.3,.3,6.3,.5c2.1,.2,4.1,.4,6.1,.6c2,.2,3.9,.4,5.8,.6c1.9,.2,3.8,.4,5.7,.6c1.8,.2,3.6,.5,5.3,.7c1.8,.2,3.5,.5,5.1,.7c1.7,.2,3.3,.5,4.9,.7c1.6,.3,3.1,.5,4.6,.8c1.4,.3,2.9,.5,4.2,.8c1.4,.3,2.7,.5,4,.8c1.3,.3,2.5,.6,3.7,.9c1.1,.3,2.2,.5,3.3,.8c1.1,.3,2.1,.6,3,.9c1,.3,1.9,.6,2.7,.9c.8,.3,1.6,.7,2.3,1c.7,.3,1.4,.6,2,.9c.6,.3,1.1,.6,1.6,1c.5,.3,.9,.6,1.3,.9c.4,.3,.7,.7,.9,1c.2,.3,.4,.6,.5,1c.2,.3,.2,.6,.2,.9c0,.4,0,.7,-.2,1c-.1,.3,-.3,.7,-.5,1c-.2,.3,-.5,.6,-.9,.9c-.4,.4,-.8,.7,-1.3,1c-.5,.3,-1,.6,-1.6,1c-.6,.3,-1.3,.6,-2,.9c-.7,.3,-1.5,.6,-2.3,.9c-.8,.3,-1.7,.6,-2.7,.9c-.9,.3,-1.9,.6,-3,.9c-1.1,.3,-2.2,.6,-3.3,.9c-1.2,.3,-2.4,.6,-3.7,.8c-1.3,.3,-2.6,.6,-4,.9c-1.3,.2,-2.8,.5,-4.2,.8c-1.5,.2,-3,.5,-4.6,.7c-1.6,.3,-3.2,.5,-4.9,.8c-1.6,.2,-3.3,.4,-5.1,.7c-1.7,.2,-3.5,.4,-5.3,.7c-1.9,.2,-3.8,.4,-5.7,.6c-1.9,.2,-3.8,.4,-5.8,.6c-2,.2,-4,.4,-6.1,.5c-2,.2,-4.1,.4,-6.3,.6c-2.1,.1,-4.2,.3,-6.4,.5c-2.2,.1,-4.4,.2,-6.7,.4c-2.2,.1,-4.5,.3,-6.7,.4c-2.3,.1,-4.6,.2,-7,.3c-2.3,.1,-4.6,.2,-7,.3c-2.4,.1,-4.8,.2,-7.2,.3c-2.4,.1,-4.8,.2,-7.2,.2c-2.4,.1,-4.9,.1,-7.3,.2c-2.5,0,-4.9,.1,-7.4,.1c-2.5,0,-4.9,.1,-7.4,.1c-2.5,0,-4.9,0,-7.4,0c-2.5,0,-5,0,-7.4,0c-2.5,0,-5,-.1,-7.4,-.1c-2.5,0,-5,-.1,-7.4,-.1c-2.5,-.1,-4.9,-.1,-7.3,-.2c-2.5,0,-4.9,-.1,-7.3,-.2c-2.4,-.1,-4.8,-.2,-7.1,-.3c-2.4,-.1,-4.7,-.2,-7.1,-.3c-2.3,-.1,-4.6,-.2,-6.9,-.3c-2.3,-.1,-4.6,-.3,-6.8,-.4c-2.2,-.2,-4.4,-.3,-6.6,-.4c-2.2,-.2,-4.4,-.4,-6.5,-.5c-2.1,-.2,-4.2,-.4,-6.3,-.6c-2,-.1,-4,-.3,-6,-.5c-2,-.2,-4,-.4,-5.9,-.6c-1.9,-.2,-3.8,-.4,-5.6,-.6c-1.8,-.3,-3.6,-.5,-5.4,-.7c-1.7,-.3,-3.4,-.5,-5.1,-.7c-1.7,-.3,-3.3,-.5,-4.8,-.8c-1.6,-.2,-3.1,-.5,-4.6,-.7c-1.5,-.3,-2.9,-.6,-4.3,-.8c-1.4,-.3,-2.7,-.6,-4,-.9c-1.2,-.2,-2.4,-.5,-3.6,-.8c-1.2,-.3,-2.3,-.6,-3.3,-.9c-1.1,-.3,-2.1,-.6,-3.1,-.9c-.9,-.3,-1.8,-.6,-2.6,-.9c-.9,-.3,-1.6,-.6,-2.4,-.9c-.7,-.3,-1.3,-.6,-1.9,-.9c-.6,-.4,-1.2,-.7,-1.7,-1c-.4,-.3,-.9,-.6,-1.2,-1c-.4,-.3,-.7,-.6,-.9,-.9c-.3,-.3,-.5,-.7,-.6,-1c-.1,-.3,-.2,-.6,-.2,-1c0,-.3,.1,-.6,.2,-.9c.1,-.4,.3,-.7,.6,-1c.2,-.3,.5,-.7,.9,-1c.3,-.3,.8,-.6,1.2,-.9c.5,-.4,1.1,-.7,1.7,-1c.6,-.3,1.2,-.6,1.9,-.9c.8,-.3,1.5,-.7,2.4,-1c.8,-.3,1.7,-.6,2.6,-.9c1,-.3,2,-.6,3.1,-.9c1,-.3,2.1,-.5,3.3,-.8c1.2,-.3,2.4,-.6,3.6,-.9c1.3,-.3,2.6,-.5,4,-.8c1.4,-.3,2.8,-.5,4.3,-.8c1.5,-.3,3,-.5,4.6,-.8c1.5,-.2,3.1,-.5,4.8,-.7c1.7,-.2,3.4,-.5,5.1,-.7c1.8,-.2,3.6,-.5,5.4,-.7c1.8,-.2,3.7,-.4,5.6,-.6c1.9,-.2,3.9,-.4,5.9,-.6c2,-.2,4,-.4,6,-.6c2.1,-.2,4.2,-.3,6.3,-.5c2.1,-.2,4.3,-.3,6.5,-.5c2.2,-.1,4.4,-.3,6.6,-.4c2.2,-.2,4.5,-.3,6.8,-.4c2.3,-.1,4.6,-.3,6.9,-.4c2.4,-.1,4.7,-.2,7.1,-.3c2.3,-.1,4.7,-.2,7.1,-.2c2.4,-.1,4.8,-.2,7.3,-.2c2.4,-.1,4.8,-.2,7.3,-.2c2.4,-.1,4.9,-.1,7.4,-.1c2.4,-.1,4.9,-.1,7.4,-.1c2.4,0,4.9,0,7.4,0Z" class="g4"/>
<path d="M1744.8,755.4v12.3c0,0,-13.8,63.9,7.7,61.1c35.1,-4.6,9.1,-56.6,9.1,-56.6V761.5l-16.8,-6.1Z" class="g5"/>
<path d="M1854,1099.2l13.8,38.2l33.6,-12.2L1886.1,1090l-32.1,9.2Z" class="g5"/>
<path d="M1784.1,1137.4L1775,1171l35.1,10.7l1.5,-35.2l-27.5,-9.1Z" class="g5"/>
<path d="M1753.4,752.4l-3.1,16.8c0,0,-1.5,12.2,0,19.8c1.5,7.7,111.5,323.9,111.5,323.9l47.4,-18.3L1848.1,894.5l-7.7,-154.3l-87,12.2Z" class="g6"/>
<path d="M1809.6,749.3l-6.1,226.1c0,0,-13.7,15.3,-10.7,26c3.1,10.7,-7.6,99.3,-7.6,99.3L1776,1145l39.8,12.2c0,0,7.6,-39.7,13.7,-44.3c6.1,-4.6,41.3,-142.1,41.3,-151.2c0,-9.2,25.9,-212.4,25.9,-212.4l-64.1,-26l-23,26Z" class="g6"/>
<path d="M1876.4,1112.9c0,0,-16.8,-18.3,-26,0c-6.9,13.2,-14.5,26,-22.9,38.2c0,0,-48.9,29.1,0,36.7c0,0,27.5,1.5,41.2,-7.6c13.8,-9.2,50.4,-23,50.4,-26c0,-3.1,-9.1,-48,-18.3,-43.1c-9.2,4.9,-24.4,1.8,-24.4,1.8Z" class="g6"/>
<path d="M1805.1,1163.3c0,0,-13.8,-19.8,-26,-6.1c-12.2,13.8,-27.5,53.5,-27.5,53.5c0,0,-27.5,41.3,15.3,39.7c42.8,-1.5,45.8,-16.8,45.8,-16.8c0,0,6.1,-39.7,6.1,-41.2c0,-1.6,-3,-17.3,-3,-17.3l-10.7,-11.8Z" class="g6"/>
<path d="M1793.4,349.8c1.4,0,2.8,.1,4.2,.2c1.4,.1,2.8,.4,4.2,.6c1.4,.3,2.7,.6,4.1,1c1.3,.5,2.6,.9,3.9,1.5c1.3,.5,2.6,1.1,3.8,1.8c1.2,.6,2.4,1.3,3.6,2.1c1.2,.8,2.3,1.6,3.4,2.5c1.1,.9,2.1,1.8,3.1,2.8c1,1,1.9,2.1,2.8,3.1c.9,1.1,1.7,2.3,2.5,3.4c.8,1.2,1.5,2.4,2.2,3.6c.6,1.3,1.2,2.5,1.8,3.8c.5,1.3,1,2.6,1.4,4c.4,1.3,.7,2.7,1,4c.3,1.4,.5,2.8,.6,4.2c.2,1.4,.2,2.8,.2,4.2c0,1.4,0,2.8,-.2,4.2c-.1,1.4,-.3,2.8,-.6,4.1c-.3,1.4,-.6,2.8,-1,4.1c-.4,1.3,-.9,2.7,-1.4,4c-.6,1.2,-1.2,2.5,-1.8,3.7c-.7,1.3,-1.4,2.5,-2.2,3.7c-.8,1.1,-1.6,2.2,-2.5,3.3c-.9,1.1,-1.8,2.1,-2.8,3.1c-1,1,-2,2,-3.1,2.9c-1.1,.8,-2.2,1.7,-3.4,2.5c-1.2,.7,-2.4,1.5,-3.6,2.1c-1.2,.7,-2.5,1.3,-3.8,1.8c-1.3,.5,-2.6,1,-3.9,1.4c-1.4,.4,-2.7,.8,-4.1,1c-1.4,.3,-2.8,.5,-4.2,.7c-1.4,.1,-2.8,.2,-4.2,.2c-1.4,0,-2.8,-.1,-4.1,-.2c-1.4,-.2,-2.8,-.4,-4.2,-.7c-1.4,-.2,-2.7,-.6,-4.1,-1c-1.3,-.4,-2.6,-.9,-3.9,-1.4c-1.3,-.5,-2.6,-1.1,-3.8,-1.8c-1.3,-.6,-2.5,-1.4,-3.6,-2.1c-1.2,-.8,-2.3,-1.7,-3.4,-2.5c-1.1,-.9,-2.1,-1.9,-3.1,-2.9c-1,-1,-1.9,-2,-2.8,-3.1c-.9,-1.1,-1.7,-2.2,-2.5,-3.3c-.8,-1.2,-1.5,-2.4,-2.2,-3.7c-.6,-1.2,-1.2,-2.5,-1.8,-3.7c-.5,-1.3,-1,-2.7,-1.4,-4c-.4,-1.3,-.7,-2.7,-1,-4.1c-.3,-1.3,-.5,-2.7,-.6,-4.1c-.2,-1.4,-.2,-2.8,-.2,-4.2c0,-1.4,0,-2.8,.2,-4.2c.1,-1.4,.3,-2.8,.6,-4.2c.3,-1.3,.6,-2.7,1,-4c.4,-1.4,.9,-2.7,1.4,-4c.6,-1.3,1.2,-2.5,1.8,-3.8c.7,-1.2,1.4,-2.4,2.2,-3.6c.8,-1.1,1.6,-2.3,2.5,-3.4c.9,-1,1.8,-2.1,2.8,-3.1c1,-1,2,-1.9,3.1,-2.8c1.1,-.9,2.2,-1.7,3.4,-2.5c1.1,-.8,2.3,-1.5,3.6,-2.1c1.2,-.7,2.5,-1.3,3.8,-1.8c1.3,-.6,2.6,-1,3.9,-1.5c1.4,-.4,2.7,-.7,4.1,-1c1.4,-.2,2.8,-.5,4.2,-.6c1.3,-.1,2.7,-.2,4.1,-.2Z" class="g5"/>
<path d="M1768.9,419.3l6.1,48.9l18.3,45.8L1833,466.7V443.8c0,0,-12.2,-18.4,-9.1,-33.6l-55,9.1Z" class="g5"/>
<path d="M1790.6,478.9l-21.4,-9.2l-22.9,270.5l4.6,16.8c0,0,12.2,7.6,50.4,1.5c38.2,-6.1,100.8,-1.5,100.8,-1.5l4.6,-139.1L1831.9,454.5l-41.3,24.4Z" class="g7"/>
<path d="M1760.8,746.3c0,0,29,-252.1,27.5,-256.7c-1.5,-4.6,-27.5,-17,-27.5,-17c0,0,-44.3,29.2,-42.8,39.9c1.5,10.7,29,236.8,29,236.8l13.8,-3Z" class="g8"/>
<path d="M1859.1,727.9c0,0,-45.8,-178.7,-47.3,-218.4c-1.6,-39.8,-1.6,-44.3,-1.6,-44.3c0,0,70.3,-24.5,94.8,0l4.6,128.3c0,0,7.6,55,4.5,71.8c-2.1,10.9,-5.1,21.7,-9.1,32.1c0,0,16.8,16.8,1.5,21.4c-15.3,4.5,-26,-3.1,-32.1,4.5c-6.1,7.7,-15.3,4.6,-15.3,4.6Z" class="g8"/>
<path d="M1756.3,503.3c0,0,-18.3,0,-16.8,21.4c1.5,21.4,0,120.7,0,120.7c0,0,-13.8,84.1,-9.2,90.2c4.6,6.1,-1.5,25.9,-1.5,25.9l27.5,6.2c0,0,3,-21.4,9.2,-23c6.1,-1.5,15.2,-45.8,15.2,-45.8L1756.3,503.3Z" class="g8"/>
<path d="M1908.6,691.3l-7.1,12.7c0,0,-48.1,38.3,-24.3,52.5c23.7,14.2,46.6,-37.7,46.6,-37.7l7.7,-13.8l-22.9,-13.7Z" class="g5"/>
<path d="M1872.5,462.1l21.4,3.1c0,0,24.4,16.8,25.9,25.9c1.6,9.2,50.4,93.2,50.4,93.2c2.9,6.3,4.5,13,4.6,19.9c0,10.7,-16.8,91.6,-25.9,93.2c-9.2,1.5,-15.3,16.8,-15.3,16.8l-32.1,-19.9c.1,-4.6,.6,-9.2,1.5,-13.7c1.5,-7.7,7.7,-22.9,7.7,-22.9l9.1,-32.1c-2.9,-2.2,-4.6,-5.6,-4.6,-9.2c0,-6.1,-25.9,-38.2,-25.9,-38.2L1872.5,462.1Z" class="g8"/>
<path d="M1789.2,494.5c0,0,-39.6,-11,-36.5,-18.7c3,-7.6,6.1,-9.1,6.1,-9.1c0,0,4.6,-12.2,9.2,-12.2c4.5,0,8.5,-3.8,8.5,-3.8l17.4,28.2l-4.7,15.6Z" class="g7"/>
<path d="M1824.5,435.4c0,0,15.2,-3.9,21.3,.7c6.1,4.6,10.7,4.6,12.2,7.7c1.6,3,21.4,6.1,15.3,10.7c-6.1,4.5,-87.1,24.4,-87.1,24.4l38.2,-27.5l.1,-16Z" class="g7"/>
<path d="M1836.5,347.1c-6.8,-11.1,-17.5,-19.3,-30,-23l-9.2,7.4l3.6,-8.6c-3,-.4,-6,-.6,-9.1,-.5l-8.2,10.6l3.4,-10.2c-14.5,1.8,-27.5,9.5,-36,21.4c-10.5,15.1,-9.8,36.2,.5,51.4c2.8,-8.7,3.8,-16.8,6.6,-25.6c2.3,.3,4.5,.4,6.7,.1l3.5,-8.1l1,7.7c10.7,-.9,26.5,-2.9,36.6,-4.8L1805,359l5.9,4.9c3.1,-.7,4.9,-1.4,4.8,-1.9c7.5,12.2,15,19.9,22.5,32.1c2.9,-17.1,7.9,-31.4,-1.7,-47Z" class="g6"/>
<path d="M1824.1,380.4c.4,0,.8,.1,1.1,.4c.4,.3,.7,.8,1,1.4c.3,.5,.5,1.2,.7,1.9c.2,.8,.2,1.6,.2,2.4c0,.8,0,1.6,-.2,2.3c-.2,.8,-.4,1.4,-.7,2c-.3,.6,-.6,1,-1,1.3c-.3,.3,-.7,.5,-1.1,.5c-.4,0,-.8,-.2,-1.2,-.5c-.4,-.3,-.7,-.7,-1,-1.3c-.3,-.6,-.5,-1.2,-.6,-2c-.2,-.7,-.3,-1.5,-.3,-2.3c0,-.8,.1,-1.6,.3,-2.4c.1,-.7,.3,-1.4,.6,-1.9c.3,-.6,.6,-1.1,1,-1.4c.4,-.3,.8,-.4,1.2,-.4Z" class="g5"/>
<path d="M1625.9,1171.3l-1.6,-.6c-.4,-.1,-36.3,-13.8,-53.1,-45c-16.8,-31.2,-8.5,-68.7,-8.5,-69l.4,-1.8l1.7,.7c.3,.1,36.2,13.8,53,45c16.8,31.1,8.6,68.7,8.5,69l-.4,1.7Zm-52,-47.1c14.2,26.4,42.6,39.9,49.7,43c1.4,-7.7,5.7,-38.8,-8.5,-65.2c-14.2,-26.3,-42.5,-39.8,-49.7,-42.9c-1.4,7.7,-5.7,38.8,8.5,65.1Z" class="g4"/>
<path d="M1584.1,1114.8c30.2,18.1,41.8,54.2,41.8,54.2c0,0,-37.3,6.6,-67.5,-11.5c-30.2,-18.2,-41.8,-54.3,-41.8,-54.3c0,0,37.3,-6.6,67.5,11.6Z" class="g9"/>
<path d="M1995.3,775.8h698.5c132.3,0,239.5,-75.4,239.5,-207.7c0,-132.3,-107.2,-187.5,-239.5,-187.5H2474.4c-264.6,0,-479.1,130.6,-479.1,395.2Z" class="g4"/>
<path d="M2654.8,743.8H2073.5v-1.6c0,-103.9,40.5,-189.5,117.1,-247.6c70.7,-53.6,168.3,-81.9,282.1,-81.9h182.1c58,0,107,12.7,141.5,36.9c39,27.3,58.9,67.7,58.9,120.2c0,52.7,-20.4,97.2,-58.8,128.6c-35.9,29.2,-86.2,45.4,-141.6,45.4Zm-578.3,-3.1h578.3c118,0,197.3,-68.7,197.3,-170.9c0,-97.9,-71.9,-154.1,-197.3,-154.1H2472.7c-191.1,0,-395.3,85.4,-396.2,325Z" class="g9"/>
<path d="M2376,514.8h82.5v19.9H2376V514.8Z" class="g9"/>
<path d="M2636,514.8h29v19.9h-29V514.8Z" class="g9"/>
<path d="M2688.9,514.8h29v19.9h-29V514.8Z" class="g9"/>
<path d="M2457.3,514.8h197v19.9h-197V514.8Z" class="g9"/>
<path d="M2287.8,643.1h82.5V663h-82.5V643.1Z" class="g9"/>
<path d="M2582.1,643.1h29V663h-29V643.1Z" class="g9"/>
<path d="M2631.7,643.1h29V663h-29V643.1Z" class="g9"/>
<path d="M2370.2,643.1h197.1V663H2370.2V643.1Z" class="g9"/>
<path d="M2577.1,559.1h82.5V579h-82.5V559.1Z" class="g9"/>
<path d="M2640,559.1h82.5V579H2640V559.1Z" class="g9"/>
<path d="M2751.5,559.1h29.1V579h-29.1V559.1Z" class="g9"/>
<path d="M2292.5,559.1h29V579h-29V559.1Z" class="g9"/>
<path d="M2342,559.1h29.1V579H2342V559.1Z" class="g9"/>
<path d="M2374.1,559.1h197V579h-197V559.1Z" class="g9"/>
<path d="M2514.3,621.8h-82.5V601.9h82.5v19.9Z" class="g9"/>
<path d="M2419.6,621.8h-82.5V601.9h82.5v19.9Z" class="g9"/>
<path d="M2321.5,621.8h-29V601.9h29v19.9Z" class="g9"/>
<path d="M2780.6,621.8h-29.1V601.9h29.1v19.9Z" class="g9"/>
<path d="M2722.5,621.8h-29V601.9h29v19.9Z" class="g9"/>
<path d="M2708.1,621.8H2511V601.9h197.1v19.9Z" class="g9"/>
<path d="M1698.9,1142.7h29v22.9h-29v-22.9Z" class="g9"/>
<path d="M1869.8,1209.9h29v23h-29v-23Z" class="g9"/>
<image x="-20" y="1690" width="2965" height="1625" xlink:href="shade/8.png"/>
<g clip-path="url(#c1)">
<path d="M-161.3,1942.5C126.8,1637,374.6,1902.1,691.5,1775.3c317,-126.7,682.9,8.5,870.2,24.4c187.3,15.8,927.8,-92.2,956.6,0c28.5,91.1,576.3,-17.3,644.7,208.5c-7.6,3.2,261.8,76.6,254.3,79.6c-622.4,252.3,-98,137,-98,137v340c0,0,-397.6,86.5,-299.6,345.8c97.9,259.3,-680,92.2,-703.1,265.1c-23,172.9,-973.9,90.7,-1181.3,74.9C927.8,3234.7,60.5,3084.9,-97.9,3031.6c-158.4,-53.3,-63.4,-576.3,-63.4,-576.3c0,0,-288.1,-207.4,0,-512.8Z" class="ga"/>
</g>
<image x="1600" y="1866" width="1193" height="1259" xlink:href="shade/9.png"/>
<path d="M1709.6,3017.4V1993.8c0,-1.6,.1,-3,.4,-4.5c.3,-1.5,.8,-2.9,1.3,-4.3c.6,-1.4,1.3,-2.7,2.1,-4c.9,-1.2,1.8,-2.4,2.9,-3.5c1.1,-1,2.2,-2,3.5,-2.8c1.2,-.8,2.5,-1.5,3.9,-2.1c1.4,-.6,2.9,-1,4.3,-1.3c1.5,-.3,3,-.5,4.5,-.5h957.9c1.5,0,3,.2,4.5,.5c1.5,.3,2.9,.7,4.3,1.3c1.4,.6,2.7,1.3,3.9,2.1c1.3,.8,2.5,1.8,3.5,2.8c1.1,1.1,2,2.3,2.9,3.5c.8,1.3,1.5,2.6,2.1,4c.6,1.4,1,2.8,1.3,4.3c.3,1.5,.4,2.9,.4,4.5V3017.4c0,1.5,-.1,3,-.4,4.4c-.3,1.5,-.7,2.9,-1.3,4.3c-.6,1.4,-1.3,2.7,-2.1,4c-.9,1.2,-1.8,2.4,-2.9,3.5c-1,1,-2.2,2,-3.5,2.8c-1.2,.9,-2.5,1.6,-3.9,2.1c-1.4,.6,-2.8,1,-4.3,1.3c-1.5,.3,-3,.5,-4.5,.5H1732.5c-1.5,0,-3,-.2,-4.5,-.5c-1.4,-.3,-2.9,-.7,-4.3,-1.3c-1.4,-.5,-2.7,-1.2,-3.9,-2.1c-1.3,-.8,-2.4,-1.8,-3.5,-2.8c-1.1,-1.1,-2,-2.3,-2.9,-3.5c-.8,-1.3,-1.5,-2.6,-2.1,-4c-.5,-1.4,-1,-2.8,-1.3,-4.3c-.3,-1.4,-.4,-2.9,-.4,-4.4Z" class="g0"/>
<image x="1927" y="1945" width="648" height="246" xlink:href="shade/10.png"/>
<path d="M199.5,2755.3l-37.9,-2.5l12.6,56.9l43,-17.7l-17.7,-36.7Z" class="gb"/>
<path d="M547.1,2649.2l-88.5,-86l-50.5,39.2l-99.9,120.1l11.4,17.7L440.9,2658l82.2,107.5l78.3,-39.2l-54.3,-77.1Z" class="g6"/>
<path d="M547.1,2649.2l-88.5,-86l-50.5,39.2l-99.9,120.1l11.4,17.7L440.9,2658l82.2,107.5l78.3,-39.2l-54.3,-77.1Z" class="gc"/>
<path d="M554.7,2706l-11.4,8.9L451,2683.3l-21.4,-8.9l-43,8.9c0,0,0,-35.4,40.4,-34.1l41.7,10.1l49.3,3.8l36.7,42.9Z" class="gb"/>
<path d="M636.8,2799.6L609,2817.3H576.2l-153,-56.9l-223.7,40.4l-6.3,-48L398,2663.1l179.4,59.4l59.4,77.1Z" class="g6"/>
<path d="M457.4,2574.6l-19,3.8l-4.1,-4.8c-6.7,-7.8,-8.1,-18.9,-3.5,-28.1L483.9,2476c0,0,15.2,-34.1,39.2,-20.2c24,13.9,-20.2,36.6,-20.2,36.6l-26.6,41.7l2.5,21.5l-21.4,19Z" class="gb"/>
<path d="M577.4,2393.9c1.6,0,3.3,0,4.9,.2c1.6,.1,3.2,.4,4.7,.7c1.6,.3,3.2,.7,4.7,1.2c1.6,.4,3.1,1,4.6,1.6c1.5,.6,2.9,1.3,4.4,2.1c1.4,.7,2.8,1.6,4.1,2.5c1.4,.9,2.7,1.8,3.9,2.8c1.3,1.1,2.4,2.1,3.6,3.3c1.1,1.1,2.2,2.3,3.2,3.6c1.1,1.2,2,2.5,2.9,3.9c.9,1.3,1.7,2.7,2.5,4.1c.8,1.4,1.5,2.9,2.1,4.4c.6,1.5,1.1,3,1.6,4.5c.5,1.6,.9,3.1,1.2,4.7c.3,1.6,.5,3.2,.7,4.8c.1,1.6,.2,3.2,.2,4.8c0,1.7,-.1,3.3,-.2,4.9c-.2,1.6,-.4,3.2,-.7,4.8c-.3,1.5,-.7,3.1,-1.2,4.7c-.5,1.5,-1,3,-1.6,4.5c-.6,1.5,-1.3,3,-2.1,4.4c-.8,1.4,-1.6,2.8,-2.5,4.1c-.9,1.4,-1.8,2.7,-2.9,3.9c-1,1.3,-2.1,2.5,-3.2,3.6c-1.2,1.1,-2.3,2.2,-3.6,3.2c-1.2,1.1,-2.5,2,-3.9,2.9c-1.3,.9,-2.7,1.8,-4.1,2.5c-1.5,.8,-2.9,1.5,-4.4,2.1c-1.5,.6,-3,1.1,-4.6,1.6c-1.5,.5,-3.1,.9,-4.7,1.2c-1.5,.3,-3.1,.5,-4.7,.7c-1.6,.2,-3.3,.2,-4.9,.2c-1.6,0,-3.2,0,-4.8,-.2c-1.6,-.2,-3.2,-.4,-4.8,-.7c-1.6,-.3,-3.1,-.7,-4.7,-1.2c-1.5,-.5,-3,-1,-4.5,-1.6c-1.5,-.6,-3,-1.3,-4.4,-2.1c-1.4,-.7,-2.8,-1.6,-4.2,-2.5c-1.3,-.9,-2.6,-1.8,-3.8,-2.9c-1.3,-1,-2.5,-2.1,-3.6,-3.2c-1.2,-1.1,-2.2,-2.3,-3.3,-3.6c-1,-1.2,-2,-2.5,-2.9,-3.9c-.9,-1.3,-1.7,-2.7,-2.4,-4.1c-.8,-1.4,-1.5,-2.9,-2.1,-4.4c-.6,-1.5,-1.2,-3,-1.6,-4.5c-.5,-1.6,-.9,-3.2,-1.2,-4.7c-.3,-1.6,-.6,-3.2,-.7,-4.8c-.2,-1.6,-.3,-3.2,-.3,-4.9c0,-1.6,.1,-3.2,.3,-4.8c.1,-1.6,.4,-3.2,.7,-4.8c.3,-1.6,.7,-3.1,1.2,-4.7c.4,-1.5,1,-3,1.6,-4.5c.6,-1.5,1.3,-3,2.1,-4.4c.7,-1.4,1.5,-2.8,2.4,-4.1c.9,-1.4,1.9,-2.7,2.9,-3.9c1.1,-1.3,2.1,-2.5,3.3,-3.6c1.1,-1.2,2.3,-2.2,3.6,-3.3c1.2,-1,2.5,-1.9,3.8,-2.8c1.4,-.9,2.8,-1.8,4.2,-2.5c1.4,-.8,2.9,-1.5,4.4,-2.1c1.5,-.6,3,-1.2,4.5,-1.6c1.6,-.5,3.1,-.9,4.7,-1.2c1.6,-.3,3.2,-.6,4.8,-.7c1.6,-.2,3.2,-.2,4.8,-.2Z" class="gb"/>
<path d="M555.3,2479.2l22.8,54.3l54.3,-22.7c0,0,-17.7,-43,-17.7,-44.3c0,-1.2,-59.4,12.7,-59.4,12.7Z" class="gb"/>
<path d="M705,2640c0,29.7,-4.7,59.3,-13.9,87.6l-3.7,11.3l-17.7,80.9l-19,5.1l-13.9,-17.7L609,2786.9l-20.2,-32.8l-17.3,-28.9l-5.4,-9l-19,-94.8l-72,-40.5L451,2577.1l5.1,-13.9l21.5,-29.1l21.5,-2.5l6.3,-5l5,2.5l20.3,-11.4l6.3,2.5l36.9,3.5l22.5,-4.7l32.3,-17.3l13.2,2.1l45.5,37.9c11.6,31.5,17.6,64.7,17.6,98.3Z" class="g8"/>
<path d="M173.2,2774.9c0,0,11.4,-19.2,6.6,-21.4c-4.8,-2.3,-25.1,-11.2,-25.1,-11.2l-29.8,-9.9c0,0,-43,-63.8,-43.9,-8.3c-1,55.6,31.3,68.9,31.3,68.9c0,0,28.7,61.9,45,52c16.3,-9.9,32.6,-43.3,32.6,-43.3c0,0,-29.4,-15.8,-16.7,-26.8Z" class="g6"/>
<path d="M691.2,2628.9l-48,31.6l-71.7,64.7l-5.4,-9l-15.2,-75.9h3.8l39.2,-72l97.3,60.6Z" class="gc"/>
<path d="M593.9,2560.7l-39.2,72H540.8l-8.9,25.3l-20.2,5.1l54.4,59.4L643.2,2653l48,-31.6l-97.3,-60.7Z" class="g8"/>
<path d="M539.1,2406.5l-5.4,2c-1.6,-1.1,-2.7,-2.8,-3.1,-4.8c-.4,-2,.1,-4,1.2,-5.6l-9.8,-.5c12.8,-17.1,32.3,-27.8,53.6,-29.5c21.3,-1.7,42.3,5.7,57.6,20.5c.5,-1.5,5.4,1.5,7.4,4.6c.7,-2.6,5.2,9.6,6.9,18.2c.7,-2.8,3.6,1.8,1.1,6.2c1.6,-.2,2.3,3.9,1.1,6.2c1.7,-.9,1.4,4.1,-.5,7.3c2.5,-.2,-19.7,34.4,-28.8,54.6c-2.6,-12.1,-5.5,-24.7,-14,-33.7c-1.4,-1.5,-3,-2.9,-4.5,-4.3l-8.5,-7.5c-9.9,-8.7,-18.9,-19.4,-32,-22.7c-9,-2.2,-14.7,-2.7,-9.8,-12.9c-4.5,1.8,-8.6,4.6,-13.1,6.3c.1,-1.4,.7,-3,.6,-4.4Z" class="g6"/>
<path d="M602.1,2440c.6,0,1.1,0,1.7,.2c.6,.1,1.1,.2,1.7,.5c.5,.2,1,.5,1.5,.8c.5,.3,.9,.7,1.3,1.1c.4,.4,.8,.8,1.1,1.3c.4,.5,.6,1,.9,1.5c.2,.6,.3,1.1,.5,1.7c.1,.6,.1,1.2,.1,1.7c0,.6,0,1.2,-.1,1.8c-.2,.5,-.3,1.1,-.5,1.6c-.3,.6,-.5,1.1,-.9,1.5c-.3,.5,-.7,1,-1.1,1.4c-.4,.4,-.8,.8,-1.3,1.1c-.5,.3,-1,.6,-1.5,.8c-.6,.2,-1.1,.4,-1.7,.5c-.6,.1,-1.1,.2,-1.7,.2c-.6,0,-1.2,-.1,-1.7,-.2c-.6,-.1,-1.2,-.3,-1.7,-.5c-.5,-.2,-1.1,-.5,-1.5,-.8c-.5,-.3,-1,-.7,-1.4,-1.1c-.4,-.4,-.8,-.9,-1.1,-1.4c-.3,-.4,-.6,-.9,-.8,-1.5c-.2,-.5,-.4,-1.1,-.5,-1.6c-.1,-.6,-.2,-1.2,-.2,-1.8c0,-.5,.1,-1.1,.2,-1.7c.1,-.6,.3,-1.1,.5,-1.7c.2,-.5,.5,-1,.8,-1.5c.3,-.5,.7,-.9,1.1,-1.3c.4,-.4,.9,-.8,1.4,-1.1c.4,-.3,1,-.6,1.5,-.8c.5,-.3,1.1,-.4,1.7,-.5c.5,-.2,1.1,-.2,1.7,-.2Z" class="gb"/>
<path d="M353.6,2250h42.8v42.8H353.6V2250Z" class="g9"/>
<path d="M422.3,2268.3H370.4v-51.9h51.9v51.9ZM372.7,2266h47.4v-47.4H372.7V2266Z" class="g4"/>
<path d="M193.5,2382.2l11.7,41.1l-41.1,11.8l-11.8,-41.2l41.2,-11.7Z" class="g9"/>
<path d="M194.7,2453.3l-14.2,-49.9l49.9,-14.3l14.3,50l-50,14.2Zm-11.4,-48.4l13,45.6l45.6,-13l-13,-45.6l-45.6,13Z" class="g4"/>
<path d="M223.8,2200.5l-29.2,31.2l-31.3,-29.2l29.3,-31.2l31.2,29.2Z" class="g9"/>
<path d="M163.5,2238.2l35.4,-38l38,35.5l-35.5,38l-37.9,-35.5ZM199,2203.4l-32.3,34.7l34.6,32.4l32.4,-34.7L199,2203.4Z" class="g4"/>
<path d="M1648.8,2166.9H1251.3v-8.1H1071.1v8.1H672c-14.9,0,-26.9,12.1,-26.9,26.9v544.3c0,14.9,12,26.9,26.9,26.9h976.8c14.9,0,26.9,-12,26.9,-26.9V2193.8c0,-14.8,-12,-26.9,-26.9,-26.9Z" class="g4"/>
<path d="M681.2,2214.5h958.5v540.7H681.2V2214.5Z" class="g9"/>
<path d="M1159.6,2180.1c.6,0,1.3,0,1.9,.1c.6,.2,1.3,.4,1.9,.6c.5,.2,1.1,.5,1.7,.9c.5,.4,1,.8,1.4,1.2c.5,.5,.9,1,1.3,1.5c.3,.6,.6,1.1,.9,1.7c.2,.6,.4,1.2,.5,1.9c.2,.6,.2,1.2,.2,1.9c0,.6,0,1.3,-.2,1.9c-.1,.6,-.3,1.2,-.5,1.8c-.3,.6,-.6,1.2,-.9,1.7c-.4,.6,-.8,1.1,-1.3,1.5c-.4,.5,-.9,.9,-1.4,1.3c-.6,.3,-1.2,.6,-1.7,.9c-.6,.2,-1.3,.4,-1.9,.5c-.6,.1,-1.3,.2,-1.9,.2c-.7,0,-1.3,-.1,-1.9,-.2c-.7,-.1,-1.3,-.3,-1.9,-.5c-.6,-.3,-1.1,-.6,-1.7,-.9c-.5,-.4,-1,-.8,-1.5,-1.3c-.4,-.4,-.8,-.9,-1.2,-1.5c-.3,-.5,-.6,-1.1,-.9,-1.7c-.2,-.6,-.4,-1.2,-.6,-1.8c-.1,-.6,-.1,-1.3,-.1,-1.9c0,-.7,0,-1.3,.1,-1.9c.2,-.7,.4,-1.3,.6,-1.9c.3,-.6,.6,-1.1,.9,-1.7c.4,-.5,.8,-1,1.2,-1.5c.5,-.4,1,-.8,1.5,-1.2c.6,-.4,1.1,-.7,1.7,-.9c.6,-.2,1.2,-.4,1.9,-.6c.6,-.1,1.2,-.1,1.9,-.1Z" class="g9"/>
<path d="M1365.5,2755.2H681.2V2214.5l684.3,540.7Z" class="gc"/>
<path d="M831.1,2530.4c3,0,6.1,.2,9.1,.5c3,.3,5.9,.7,8.9,1.3c3,.6,5.9,1.3,8.8,2.2c2.9,.9,5.7,1.9,8.5,3c2.8,1.2,5.5,2.5,8.2,3.9c2.6,1.4,5.2,3,7.7,4.7c2.5,1.6,4.9,3.4,7.3,5.3c2.3,2,4.5,4,6.7,6.1c2.1,2.1,4.1,4.4,6.1,6.7c1.9,2.3,3.7,4.8,5.3,7.3c1.7,2.5,3.3,5.1,4.7,7.7c1.4,2.7,2.7,5.4,3.9,8.2c1.1,2.8,2.1,5.6,3,8.5c.9,2.9,1.6,5.8,2.2,8.8c.6,2.9,1,5.9,1.3,8.9c.3,3,.5,6,.5,9.1c0,3,-.2,6,-.5,9c-.3,3,-.7,6,-1.3,8.9c-.6,3,-1.3,5.9,-2.2,8.8c-.9,2.9,-1.9,5.7,-3,8.5c-1.2,2.8,-2.5,5.5,-3.9,8.2c-1.4,2.7,-3,5.2,-4.7,7.8c-1.6,2.5,-3.4,4.9,-5.3,7.2c-2,2.3,-4,4.6,-6.1,6.7c-2.2,2.1,-4.4,4.2,-6.7,6.1c-2.4,1.9,-4.8,3.7,-7.3,5.4c-2.5,1.6,-5.1,3.2,-7.7,4.6c-2.7,1.4,-5.4,2.7,-8.2,3.9c-2.8,1.1,-5.6,2.2,-8.5,3c-2.9,.9,-5.8,1.6,-8.8,2.2c-3,.6,-5.9,1.1,-8.9,1.4c-3,.3,-6.1,.4,-9.1,.4c-3,0,-6,-.1,-9,-.4c-3,-.3,-6,-.8,-8.9,-1.4c-3,-.6,-5.9,-1.3,-8.8,-2.2c-2.9,-.8,-5.7,-1.9,-8.5,-3c-2.8,-1.2,-5.5,-2.5,-8.2,-3.9c-2.7,-1.4,-5.2,-3,-7.8,-4.6c-2.5,-1.7,-4.9,-3.5,-7.2,-5.4c-2.4,-1.9,-4.6,-4,-6.7,-6.1c-2.2,-2.1,-4.2,-4.4,-6.1,-6.7c-1.9,-2.3,-3.7,-4.7,-5.4,-7.2c-1.7,-2.6,-3.2,-5.1,-4.6,-7.8c-1.4,-2.7,-2.7,-5.4,-3.9,-8.2c-1.1,-2.8,-2.2,-5.6,-3,-8.5c-.9,-2.9,-1.6,-5.8,-2.2,-8.8c-.6,-2.9,-1.1,-5.9,-1.4,-8.9c-.3,-3,-.4,-6,-.4,-9c0,-3.1,.1,-6.1,.4,-9.1c.3,-3,.8,-6,1.4,-8.9c.6,-3,1.3,-5.9,2.2,-8.8c.8,-2.9,1.9,-5.7,3,-8.5c1.2,-2.8,2.5,-5.5,3.9,-8.2c1.4,-2.6,2.9,-5.2,4.6,-7.7c1.7,-2.5,3.5,-5,5.4,-7.3c1.9,-2.3,3.9,-4.6,6.1,-6.7c2.1,-2.1,4.3,-4.1,6.7,-6.1c2.3,-1.9,4.7,-3.7,7.2,-5.3c2.6,-1.7,5.1,-3.3,7.8,-4.7c2.7,-1.4,5.4,-2.7,8.2,-3.9c2.8,-1.1,5.6,-2.1,8.5,-3c2.9,-.9,5.8,-1.6,8.8,-2.2c2.9,-.6,5.9,-1,8.9,-1.3c3,-.3,6,-.5,9,-.5Z" class="gd"/>
<path d="M851.6,2691.8C788.3,2691.8,737,2640.5,737,2577.2c0,-63.3,51.3,-114.6,114.6,-114.6c63.3,0,114.6,51.3,114.6,114.6c0,63.3,-51.3,114.5,-114.6,114.6Zm0,-227.7c-62.4,0,-113.1,50.6,-113.1,113.1c0,62.5,50.7,113.1,113.1,113.1c62.5,0,113.1,-50.6,113.1,-113.1c0,-62.4,-50.6,-113,-113.1,-113.1Z" class="g4"/>
<path d="M1383.2,2506.1h89.6v18.7h-89.6v-18.7Z" class="g4"/>
<path d="M1275,2360.4h306v8H1275v-8Z" class="g4"/>
<path d="M1275,2385.8h306v8H1275v-8Z" class="g4"/>
<path d="M1275,2411.2h306v8H1275v-8Z" class="g4"/>
<path d="M1275,2436.6h306v8H1275v-8Z" class="g4"/>
<path d="M1275,2462h306v8H1275v-8Z" class="g4"/>
<path d="M1543.6,2225.4H1581v37.4h-37.4v-37.4Z" class="gd"/>
<path d="M1598.4,2280.2H1553v-45.4h45.4v45.4Zm-43.5,-2h41.5v-41.4h-41.5v41.4Z" class="g4"/>
<path d="M1702.6,2745.3h-93.5v-6.7c0,-.8,-.6,-1.3,-1.4,-1.3h-32c-.8,0,-1.4,.5,-1.4,1.3v6.7h-20v-6.7c0,-.8,-.6,-1.3,-1.4,-1.3h-32c-.8,0,-1.4,.5,-1.4,1.3v6.7h-20v-6.7c0,-.8,-.6,-1.3,-1.3,-1.3h-32.1c-.7,0,-1.3,.5,-1.3,1.3v6.7h-20.1v-6.7c0,-.8,-.6,-1.3,-1.3,-1.3h-32.1c-.7,0,-1.3,.5,-1.3,1.3v6.7h-20.1v-6.7c0,-.8,-.6,-1.3,-1.3,-1.3h-32.1c-.7,0,-1.3,.5,-1.3,1.3v6.7h-20.1v-6.7c0,-.8,-.6,-1.3,-1.3,-1.3h-32.1c-.7,0,-1.3,.5,-1.3,1.3v6.7h-20.1v-6.7c0,-.8,-.6,-1.3,-1.3,-1.3H1027.8c-.8,0,-1.4,.5,-1.4,1.3v6.7h-20v-6.7c0,-.8,-.6,-1.3,-1.4,-1.3H973c-.8,0,-1.4,.5,-1.4,1.3v6.7h-20v-6.7c0,-.8,-.6,-1.3,-1.3,-1.3H918.2c-.8,0,-1.4,.5,-1.4,1.3v6.7h-20v-6.7c0,-.8,-.6,-1.3,-1.3,-1.3H863.4c-.7,0,-1.3,.5,-1.3,1.3v6.7H842v-6.7c0,-.8,-.6,-1.3,-1.3,-1.3H808.6c-.7,0,-1.3,.5,-1.3,1.3v6.7H787.2v-6.7c0,-.8,-.6,-1.3,-1.3,-1.3H753.8c-.7,0,-1.3,.5,-1.3,1.3v6.7H732.4v-6.7c0,-.8,-.6,-1.3,-1.3,-1.3H699c-.7,0,-1.3,.5,-1.3,1.3v6.7H636.2c-17.7,0,-32.1,14.4,-32.1,32.1v14.5c0,17.7,14.4,32.1,32.1,32.1H1702.6c17.7,0,32.1,-14.4,32.1,-32.1v-14.5c0,-17.7,-14.4,-32.1,-32.1,-32.1Z" class="g4"/>
<image x="155" y="3772" width="1149" height="246" xlink:href="shade/11.png"/>
<path d="M2503.6,4108.8H2583v41.3h-79.4v-41.3Z" class="ge"/>
<path d="M2509.7,4157.5h79.4v41.3h-79.4v-41.3Z" class="ge"/>
<path d="M2444,3824h79.4v41.3H2444V3824Z" class="ge"/>
<path d="M2500.5,3871.4h79.4v41.2h-79.4v-41.2Z" class="ge"/>
<path d="M2357.7,3827.1h79.4v41.2h-79.4v-41.2Z" class="ge"/>
<path d="M2602.9,3911h79.4v41.3h-79.4V3911Z" class="ge"/>
<path d="M2506.6,3914h79.5v41.2h-79.5V3914Z" class="ge"/>
<path d="M2412.2,3874.4h79.5v41.3h-79.5v-41.3Z" class="ge"/>
<path d="M2598.3,4218.1h79.4v41.2h-79.4v-41.2Z" class="ge"/>
<path d="M2502,4221h79.5v41.3H2502V4221Z" class="ge"/>
<path d="M1581.7,4073.5c0,0,111.9,111.9,48.7,278c-63.2,166.1,108.4,442.5,108.4,442.5c0,0,-1.9,-.3,-5.3,-.9c-229.9,-40.5,-344.2,-303.6,-216.3,-498.9c47.5,-72.7,86.5,-157.9,64.5,-220.7Z" class="g9"/>
<path d="M1581.7,4073.5c0,0,63.2,137.2,0,249.2c-63.2,111.9,-10.9,426.2,157.1,471.3" class="gf"/>
<path d="M1382.2,4526.3c0,0,127.8,-20.3,139.4,94.2c11.7,114.5,245.7,130.4,245.7,130.4c0,0,-1.5,1,-4.4,2.9c-193.2,126.8,-377.9,80.8,-350.1,-87.7c10.4,-62.6,9.5,-125.5,-30.6,-139.8Z" class="g9"/>
<path d="M1382.2,4526.3c0,0,127.8,-20.3,139.4,94.2c11.7,114.5,245.7,130.4,245.7,130.4c0,0,-1.5,1,-4.4,2.9c-193.2,126.8,-377.9,80.8,-350.1,-87.7c10.4,-62.6,9.5,-125.5,-30.6,-139.8Z" class="gg"/>
<path d="M1382.2,4526.3c0,0,99.2,21.8,91,112c-8.1,90.1,147.3,198.3,294.1,112.6" class="gf"/>
<path d="M1382.9,4110.3h79.4v41.3h-79.4v-41.3Z" class="ge"/>
<path d="M1439.4,4156.1h79.4v41.2h-79.4v-41.2Z" class="ge"/>
<path d="M1851.8,3691.1h79.5v41.3h-79.5v-41.3Z" class="ge"/>
<path d="M2450.1,4426.2h79.4v41.2h-79.4v-41.2Z" class="ge"/>
<path d="M1445.5,4204.8h79.4V4246h-79.4v-41.2Z" class="ge"/>
<path d="M1906.4,3738.5h79.4v41.2h-79.4v-41.2Z" class="ge"/>
<path d="M1626.2,4007h79.4v41.2h-79.4V4007Z" class="ge"/>
<path d="M1680.7,4052.7h79.5V4094h-79.5v-41.3Z" class="ge"/>
<path d="M1826.7,4027.6h79.5v41.3h-79.5v-41.3Z" class="ge"/>
<path d="M1686.6,4101.5h79.5v41.2h-79.5v-41.2Z" class="ge"/>
<path d="M2557,4426.2h79.5v41.2H2557v-41.2Z" class="ge"/>
<image x="1664" y="3762" width="800" height="832" xlink:href="shade/12.png"/>
<path d="M2125.8,3779.1c63.7,0,115.4,51.7,115.4,115.4v49.3H2010.3v-49.3c0,-63.7,51.7,-115.4,115.5,-115.4Z" class="gh"/>
<path d="M2126.5,3869.5c2.1,0,4.3,0,6.4,.1c2.2,.1,4.3,.2,6.5,.3c2.1,.2,4.2,.4,6.4,.6c2.1,.2,4.2,.4,6.3,.7c2.1,.3,4.2,.6,6.3,1c2.1,.4,4.2,.8,6.3,1.2c2,.4,4.1,.9,6.1,1.4c2,.5,4,1,6,1.6c2,.5,4,1.1,5.9,1.8c2,.6,3.9,1.3,5.8,2c1.9,.7,3.8,1.4,5.6,2.2c1.9,.7,3.7,1.5,5.5,2.3c1.8,.9,3.5,1.7,5.2,2.6c1.8,.9,3.5,1.8,5.1,2.7c1.7,1,3.3,1.9,4.9,2.9c1.6,1,3.2,2,4.7,3.1c1.5,1,3,2.1,4.5,3.2c1.4,1.1,2.8,2.2,4.2,3.4c1.3,1.1,2.7,2.3,4,3.5c1.2,1.1,2.5,2.4,3.7,3.6c1.2,1.2,2.3,2.5,3.4,3.7c1.1,1.3,2.2,2.6,3.2,3.9c1,1.3,2,2.6,2.9,4c.9,1.3,1.8,2.7,2.6,4c.9,1.4,1.6,2.8,2.4,4.2c.7,1.4,1.4,2.8,2,4.2c.6,1.4,1.2,2.8,1.7,4.3c.5,1.4,1,2.8,1.4,4.3c.4,1.4,.8,2.9,1.1,4.4c.3,1.4,.6,2.9,.8,4.4c.2,1.4,.4,2.9,.5,4.4c.1,1.5,.2,2.9,.2,4.4c0,1.5,-.1,3,-.2,4.5c-.1,1.4,-.3,2.9,-.5,4.4c-.2,1.5,-.5,2.9,-.8,4.4c-.3,1.5,-.7,2.9,-1.1,4.4c-.4,1.4,-.9,2.9,-1.4,4.3c-.5,1.4,-1.1,2.9,-1.7,4.3c-.6,1.4,-1.3,2.8,-2,4.2c-.8,1.4,-1.5,2.8,-2.4,4.1c-.8,1.4,-1.7,2.7,-2.6,4.1c-.9,1.3,-1.9,2.6,-2.9,4c-1,1.3,-2.1,2.5,-3.2,3.8c-1.1,1.3,-2.2,2.5,-3.4,3.8c-1.2,1.2,-2.5,2.4,-3.7,3.6c-1.3,1.2,-2.7,2.3,-4,3.5c-1.4,1.1,-2.8,2.3,-4.2,3.4c-1.5,1,-3,2.1,-4.5,3.2c-1.5,1,-3.1,2,-4.7,3c-1.6,1,-3.2,2,-4.9,2.9c-1.6,1,-3.3,1.9,-5.1,2.8c-1.7,.8,-3.4,1.7,-5.2,2.5c-1.8,.8,-3.6,1.6,-5.5,2.4c-1.8,.7,-3.7,1.5,-5.6,2.2c-1.9,.7,-3.8,1.3,-5.8,2c-1.9,.6,-3.9,1.2,-5.9,1.8c-2,.5,-4,1.1,-6,1.6c-2,.5,-4.1,.9,-6.1,1.4c-2.1,.4,-4.2,.8,-6.3,1.1c-2.1,.4,-4.2,.7,-6.3,1c-2.1,.3,-4.2,.6,-6.3,.8c-2.2,.2,-4.3,.4,-6.4,.5c-2.2,.2,-4.3,.3,-6.5,.3c-2.1,.1,-4.3,.2,-6.4,.2c-2.2,0,-4.4,-.1,-6.5,-.2c-2.2,0,-4.3,-.1,-6.4,-.3c-2.2,-.1,-4.3,-.3,-6.5,-.5c-2.1,-.2,-4.2,-.5,-6.3,-.8c-2.1,-.3,-4.2,-.6,-6.3,-1c-2.1,-.3,-4.2,-.7,-6.2,-1.1c-2.1,-.5,-4.2,-.9,-6.2,-1.4c-2,-.5,-4,-1.1,-6,-1.6c-2,-.6,-4,-1.2,-5.9,-1.8c-2,-.7,-3.9,-1.3,-5.8,-2c-1.9,-.7,-3.8,-1.5,-5.6,-2.2c-1.9,-.8,-3.7,-1.6,-5.5,-2.4c-1.8,-.8,-3.5,-1.7,-5.2,-2.5c-1.8,-.9,-3.5,-1.8,-5.1,-2.8c-1.7,-.9,-3.3,-1.9,-4.9,-2.9c-1.6,-1,-3.2,-2,-4.7,-3c-1.5,-1.1,-3,-2.2,-4.5,-3.2c-1.4,-1.1,-2.8,-2.3,-4.2,-3.4c-1.3,-1.2,-2.7,-2.3,-4,-3.5c-1.2,-1.2,-2.5,-2.4,-3.7,-3.6c-1.2,-1.3,-2.3,-2.5,-3.4,-3.8c-1.1,-1.3,-2.2,-2.5,-3.2,-3.8c-1,-1.4,-2,-2.7,-2.9,-4c-.9,-1.4,-1.8,-2.7,-2.6,-4.1c-.9,-1.3,-1.6,-2.7,-2.4,-4.1c-.7,-1.4,-1.4,-2.8,-2,-4.2c-.6,-1.4,-1.2,-2.9,-1.7,-4.3c-.5,-1.4,-1,-2.9,-1.4,-4.3c-.4,-1.5,-.8,-2.9,-1.1,-4.4c-.3,-1.5,-.6,-2.9,-.8,-4.4c-.2,-1.5,-.4,-3,-.5,-4.4c-.1,-1.5,-.2,-3,-.2,-4.5c0,-1.5,.1,-2.9,.2,-4.4c.1,-1.5,.3,-3,.5,-4.4c.2,-1.5,.5,-3,.8,-4.4c.3,-1.5,.7,-3,1.1,-4.4c.4,-1.5,.9,-2.9,1.4,-4.3c.5,-1.5,1.1,-2.9,1.7,-4.3c.6,-1.4,1.3,-2.8,2,-4.2c.8,-1.4,1.5,-2.8,2.4,-4.2c.8,-1.3,1.7,-2.7,2.6,-4c.9,-1.4,1.9,-2.7,2.9,-4c1,-1.3,2.1,-2.6,3.2,-3.9c1.1,-1.2,2.2,-2.5,3.4,-3.7c1.2,-1.2,2.5,-2.5,3.7,-3.6c1.3,-1.2,2.7,-2.4,4,-3.5c1.4,-1.2,2.8,-2.3,4.2,-3.4c1.5,-1.1,3,-2.2,4.5,-3.2c1.5,-1.1,3.1,-2.1,4.7,-3.1c1.6,-1,3.2,-1.9,4.9,-2.9c1.6,-.9,3.3,-1.8,5.1,-2.7c1.7,-.9,3.4,-1.7,5.2,-2.6c1.8,-.8,3.6,-1.6,5.5,-2.3c1.8,-.8,3.7,-1.5,5.6,-2.2c1.9,-.7,3.8,-1.4,5.8,-2c1.9,-.7,3.9,-1.3,5.9,-1.8c2,-.6,4,-1.1,6,-1.6c2,-.5,4.1,-1,6.2,-1.4c2,-.4,4.1,-.8,6.2,-1.2c2.1,-.4,4.2,-.7,6.3,-1c2.1,-.3,4.2,-.5,6.3,-.7c2.2,-.2,4.3,-.4,6.5,-.6c2.1,-.1,4.2,-.2,6.4,-.3c2.1,-.1,4.3,-.1,6.5,-.1Z" class="gh"/>
<path d="M2041.4,4033.8c0,0,27.5,143.7,0,182.4c-27.5,38.8,84,54.1,84,54.1l115.5,-41.9L2257,4125c0,0,-70.3,-39.6,-55.7,-119.5l-159.9,28.3Z" class="gi"/>
<path d="M2376.1,4504c0,0,7.2,31.5,-32.3,37.1c-23.4,3.4,-47.2,3.2,-70.4,-.8l-8.8,-79.1h92.1l19.4,42.8Z" class="gi"/>
<path d="M1697.4,4464c0,0,-17.5,71,22.1,77.5c39.6,6.4,184.9,6.4,184.9,6.4v-84l-65.8,14l-61.8,-59.2l-79.4,45.3Z" class="gi"/>
<path d="M2052.7,4072.2L1898,4104.9c0,0,-58.9,2.5,-96.9,80.8c-37.9,78.3,-120.3,302,-120.3,302c0,0,70.3,-71.1,152.6,4.8l54.9,-99.3l-12.1,157.5h425.5v-74.3c0,0,88.8,47.6,82.3,74.2c0,0,76.1,-195.8,59.6,-284.8c-4.9,-27.5,-7.9,-55.3,-9,-83.2c-2,-47.2,-33.5,-88,-78.5,-101.9c-8,-2.5,-16.8,-4.8,-26.6,-6.8c-91.3,-19.4,-114.6,0,-114.6,0c0,0,-17.7,57.5,-17.4,83.5c.4,33.5,-47.6,55.8,-47.6,55.8c0,0,-71.1,-17,-74.3,-30.7c-3.2,-13.7,-28.6,-94.1,-22.9,-110.3Z" class="gc"/>
<path d="M2052.7,4069.2L1898,4101.9c0,0,-58.9,2.4,-96.9,80.7c-37.9,78.4,-120.3,302,-120.3,302c0,0,70.3,-71,152.6,4.9l54.9,-99.3l-12.1,157.4h425.5v-74.3c0,0,88.8,47.6,82.3,74.3c0,0,76.1,-195.8,59.6,-284.8c-4.9,-27.5,-7.9,-55.4,-9,-83.3c-2,-47.1,-33.5,-87.9,-78.5,-101.9c-8,-2.4,-16.8,-4.7,-26.6,-6.8c-91.3,-19.4,-114.6,0,-114.6,0c0,0,-17.7,57.5,-17.4,83.6c.4,33.5,-47.6,55.7,-47.6,55.7c0,0,-71.1,-17,-74.3,-30.7c-3.2,-13.7,-28.6,-94.1,-22.9,-110.2Z" class="gj"/>
<path d="M2208.9,4072c-6.5,-18.4,-8,-38.2,-4.3,-57.3l-159.9,28.2c0,0,2.3,12.1,5,30.2c20.8,21.7,49.7,33.8,79.8,33.6c30.1,-.2,58.8,-12.8,79.3,-34.7h.1Z" class="gc"/>
<path d="M2236,3993.5c.7,60.6,-47.8,110.4,-108.5,111.1c-60.6,.7,-110.4,-47.8,-111.1,-108.5c0,-.9,0,-1.7,0,-2.6c0,-42,23.9,-80.3,61.6,-98.7c3.3,-1.6,6.6,-3.1,10.1,-4.3c18.1,-6.7,37.6,-8.5,56.5,-5.3c50.1,8.5,87.8,50.3,91.1,101c.2,2.4,.3,4.8,.3,7.3Z" class="gi"/>
<path d="M2087.9,3893.7l.2,-.1c-3.5,1.3,-6.9,2.7,-10.1,4.3c-37.7,18.5,-61.6,56.8,-61.6,98.7c0,.9,0,1.8,0,2.7c3.4,-.1,6.8,-.9,9.9,-2.4c26.7,-12.5,42.7,-50.7,49.1,-77.4c2.3,-9.5,4.4,-20.3,12.5,-25.8Z" class="gc"/>
<path d="M2172,3896.8c-8.7,-4,-17.9,-6.9,-27.3,-8.4c7.7,1.7,14.6,6.1,19.6,12.3c2.4,3.3,4.4,6.9,6,10.7c-29.6,-13,-63.3,-12.3,-92.4,1.9c6.9,15.1,28.3,23.3,42.6,28.8c15.6,6.1,31.4,11.6,47.3,16.6l-14.1,-11.5l31.9,5.1c.3,-6.4,-.4,-12.7,-2.2,-18.8c6.1,4.9,14.2,6.6,20.8,10.7c12.4,7.8,17.6,22.9,24.4,36c1.8,3.4,3.9,7,7.1,9.1c-2.7,-40.2,-27.1,-75.7,-63.7,-92.5Z" class="gc"/>
<path d="M2090.9,3891.1h.1c-3.5,1.2,-6.8,2.7,-10.1,4.3c-37.7,18.4,-61.6,56.7,-61.6,98.7c0,.9,0,1.7,0,2.6c3.4,-.1,6.8,-.9,9.9,-2.3c26.7,-12.5,42.7,-50.8,49.1,-77.4c2.3,-9.5,4.4,-20.3,12.6,-25.9Z" class="gk"/>
<path d="M2171,3894.5c-8.7,-4,-17.9,-6.9,-27.3,-8.5c7.7,1.8,14.7,6.2,19.6,12.3c2.4,3.4,4.5,6.9,6,10.7c-29.6,-12.9,-63.3,-12.2,-92.3,2c6.9,15.1,28.2,23.3,42.5,28.8c15.6,6,31.4,11.6,47.4,16.6l-14.2,-11.5l31.9,5.1c.4,-6.4,-.4,-12.7,-2.2,-18.8c6.1,4.9,14.2,6.5,20.8,10.7c12.5,7.8,17.6,22.9,24.4,36c1.8,3.4,3.9,6.9,7.1,9.1c-2.6,-40.2,-27.1,-75.7,-63.7,-92.5Z" class="gk"/>
<path d="M2003.8,3976.7c0,0,113.1,-140.6,243.9,0l-11.3,-31.5c0,0,-61.4,-89.6,-105,-70.3c-43.6,19.4,-86.4,33.1,-86.4,33.1l-41.2,68.7Z" class="gc"/>
<path d="M2003.8,3974.3c0,0,113.1,-140.6,243.9,0l-11.3,-31.5c0,0,-61.4,-89.6,-105,-70.3c-43.6,19.4,-86.4,33.1,-86.4,33.1l-41.2,68.7Z" class="gh"/>
<path d="M1918.7,4260.3c0,0,-24.2,64.6,9.7,122.8c33.9,58.1,-29.9,82.3,-29.9,82.3Z" class="gc"/>
<path d="M2297.7,4203.2c0,0,42,53.3,14.5,100.9c-27.4,47.7,-25.8,162.3,-25.8,162.3Z" class="gc"/>
<path d="M1873.7,4507.9h466.6c21.5,0,38.8,17.3,38.8,38.7H1834.9c0,-21.4,17.4,-38.7,38.8,-38.7Z" class="gl"/>
<path d="M1921.3,4245.4h371.8c32.9,0,59.6,26.7,59.6,59.6v215.8H1861.8V4305c0,-32.9,26.6,-59.6,59.5,-59.6Z" class="gl"/>
<path d="M2107.9,4366.6c.9,0,1.9,.1,2.8,.2c1,.1,1.9,.2,2.8,.4c1,.2,1.9,.4,2.8,.7c.9,.3,1.8,.6,2.7,1c.9,.3,1.7,.7,2.6,1.2c.8,.4,1.6,.9,2.4,1.4c.8,.6,1.6,1.1,2.3,1.7c.7,.6,1.4,1.3,2.1,2c.7,.6,1.3,1.3,1.9,2.1c.6,.7,1.2,1.5,1.7,2.3c.6,.8,1.1,1.6,1.5,2.4c.4,.8,.9,1.7,1.2,2.6c.4,.9,.7,1.8,1,2.7c.3,.9,.5,1.8,.7,2.7c.2,1,.3,1.9,.4,2.9c.1,.9,.1,1.9,.1,2.8c0,1,0,1.9,-.1,2.9c-.1,.9,-.2,1.9,-.4,2.8c-.2,.9,-.4,1.8,-.7,2.8c-.3,.9,-.6,1.8,-1,2.6c-.3,.9,-.8,1.8,-1.2,2.6c-.4,.9,-.9,1.7,-1.5,2.5c-.5,.8,-1.1,1.5,-1.7,2.3c-.6,.7,-1.2,1.4,-1.9,2.1c-.7,.6,-1.4,1.3,-2.1,1.9c-.7,.6,-1.5,1.2,-2.3,1.7c-.8,.5,-1.6,1,-2.4,1.5c-.9,.4,-1.7,.8,-2.6,1.2c-.9,.3,-1.8,.7,-2.7,.9c-.9,.3,-1.8,.5,-2.8,.7c-.9,.2,-1.8,.4,-2.8,.4c-.9,.1,-1.9,.2,-2.8,.2c-1,0,-1.9,-.1,-2.9,-.2c-.9,0,-1.9,-.2,-2.8,-.4c-.9,-.2,-1.9,-.4,-2.8,-.7c-.9,-.2,-1.8,-.6,-2.7,-.9c-.8,-.4,-1.7,-.8,-2.5,-1.2c-.9,-.5,-1.7,-1,-2.5,-1.5c-.8,-.5,-1.5,-1.1,-2.3,-1.7c-.7,-.6,-1.4,-1.3,-2.1,-1.9c-.7,-.7,-1.3,-1.4,-1.9,-2.1c-.6,-.8,-1.2,-1.5,-1.7,-2.3c-.5,-.8,-1,-1.6,-1.5,-2.5c-.4,-.8,-.8,-1.7,-1.2,-2.6c-.4,-.8,-.7,-1.7,-1,-2.6c-.2,-1,-.5,-1.9,-.7,-2.8c-.1,-.9,-.3,-1.9,-.4,-2.8c-.1,-1,-.1,-1.9,-.1,-2.9c0,-.9,0,-1.9,.1,-2.8c.1,-1,.3,-1.9,.4,-2.9c.2,-.9,.5,-1.8,.7,-2.7c.3,-.9,.6,-1.8,1,-2.7c.4,-.9,.8,-1.8,1.2,-2.6c.5,-.8,1,-1.6,1.5,-2.4c.5,-.8,1.1,-1.6,1.7,-2.3c.6,-.8,1.2,-1.5,1.9,-2.1c.7,-.7,1.4,-1.4,2.1,-2c.8,-.6,1.5,-1.1,2.3,-1.7c.8,-.5,1.6,-1,2.5,-1.4c.8,-.5,1.7,-.9,2.5,-1.2c.9,-.4,1.8,-.7,2.7,-1c.9,-.3,1.9,-.5,2.8,-.7c.9,-.2,1.9,-.3,2.8,-.4c1,-.1,1.9,-.2,2.9,-.2Z" class="g0"/>
<path d="M2010.3,3917.5c0,0,111.1,-111,230.9,-2" class="gm"/>
<path d="M2254.1,3902.9h11.2v63.2h-11.2v-63.2Z" class="gn"/>
<path d="M2239.1,3942.3c21.3,0,38.5,17.2,38.5,38.4v2.5c0,21.2,-17.2,38.4,-38.5,38.4v-79.3Z" class="go"/>
<path d="M2232.4,4016.7v-69.4c0,-.6,.1,-1.1,.2,-1.7c.1,-.6,.2,-1.1,.5,-1.6c.2,-.6,.4,-1.1,.8,-1.5c.3,-.5,.6,-.9,1,-1.3c.4,-.4,.9,-.8,1.4,-1.1c.4,-.3,.9,-.6,1.5,-.8c.5,-.2,1,-.4,1.6,-.5c.5,-.1,1.1,-.2,1.7,-.2c.5,0,1.1,.1,1.7,.2c.5,.1,1.1,.3,1.6,.5c.5,.2,1,.5,1.5,.8c.5,.3,.9,.7,1.3,1.1c.4,.4,.8,.8,1.1,1.3c.3,.4,.6,.9,.8,1.5c.2,.5,.4,1,.5,1.6c.1,.6,.2,1.1,.2,1.7v69.4c0,.6,-.1,1.2,-.2,1.7c-.1,.6,-.3,1.1,-.5,1.6c-.2,.6,-.5,1.1,-.8,1.5c-.3,.5,-.7,1,-1.1,1.4c-.4,.4,-.8,.7,-1.3,1c-.5,.4,-1,.6,-1.5,.8c-.5,.3,-1.1,.4,-1.6,.5c-.6,.2,-1.2,.2,-1.7,.2c-.6,0,-1.2,0,-1.7,-.2c-.6,-.1,-1.1,-.2,-1.6,-.5c-.6,-.2,-1.1,-.4,-1.5,-.8c-.5,-.3,-1,-.6,-1.4,-1c-.4,-.4,-.7,-.9,-1,-1.4c-.4,-.4,-.6,-.9,-.8,-1.5c-.3,-.5,-.4,-1,-.5,-1.6c-.1,-.5,-.2,-1.1,-.2,-1.7Z" class="gn"/>
<path d="M1997.4,3967.3h-11.2v-63.2h11.2v63.2Z" class="gn"/>
<path d="M2012.2,4022.8c-21.2,0,-38.4,-17.2,-38.4,-38.4v-2.5c0,-21.2,17.2,-38.5,38.4,-38.5v79.4Z" class="go"/>
<path d="M2019,3948.5v69.4c0,.6,0,1.1,-.1,1.7c-.1,.6,-.3,1.1,-.5,1.6c-.2,.6,-.5,1.1,-.8,1.5c-.3,.5,-.7,.9,-1.1,1.3c-.4,.4,-.8,.8,-1.3,1.1c-.5,.3,-1,.6,-1.5,.8c-.5,.2,-1.1,.4,-1.6,.5c-.6,.1,-1.2,.2,-1.7,.2c-.6,0,-1.2,-.1,-1.7,-.2c-.6,-.1,-1.1,-.3,-1.7,-.5c-.5,-.2,-1,-.5,-1.5,-.8c-.4,-.3,-.9,-.7,-1.3,-1.1c-.4,-.4,-.7,-.8,-1,-1.3c-.4,-.4,-.6,-.9,-.8,-1.5c-.3,-.5,-.4,-1,-.5,-1.6c-.2,-.6,-.2,-1.1,-.2,-1.7v-69.4c0,-.6,0,-1.2,.2,-1.7c.1,-.6,.2,-1.1,.5,-1.7c.2,-.5,.4,-1,.8,-1.5c.3,-.4,.6,-.9,1,-1.3c.4,-.4,.9,-.7,1.3,-1c.5,-.4,1,-.6,1.5,-.8c.6,-.3,1.1,-.4,1.7,-.5c.5,-.2,1.1,-.2,1.7,-.2c.5,0,1.1,0,1.7,.2c.5,.1,1.1,.2,1.6,.5c.5,.2,1,.4,1.5,.8c.5,.3,.9,.6,1.3,1c.4,.4,.8,.9,1.1,1.3c.3,.5,.6,1,.8,1.5c.2,.6,.4,1.1,.5,1.7c.1,.5,.1,1.1,.1,1.7Z" class="gn"/>
<path d="M2256.7,3842.9c-15.1,-31.4,-48,-69.4,-119,-72.5v-.1h-.8l-25.2,1.2v.2c-70.4,3.2,-103.2,41,-118.2,72.3c-10.1,21.3,-15.4,44.4,-15.7,67.9l8.7,-.2l8.7,-.2c.4,-20.9,5.2,-41.5,14.1,-60.4c19.1,-39.3,54.3,-60.2,104.6,-62.1l22.2,-1.3c50.3,2,85.6,22.9,104.7,62.1c8.9,19,13.7,39.5,14.1,60.5l8.7,.2l8.7,.2c-.3,-23.5,-5.6,-46.6,-15.6,-67.8Z" class="go"/>
<path d="M1495.4,4536.4H2634v317.8H1495.4V4536.4Z" class="gp"/>
<path d="M1495.4,4566.4H2634v41.3H1495.4v-41.3Z" class="gc"/>
<path d="M1416,4541.3H2713.3v41.3H1416v-41.3Z" class="gp"/>
<image x="1009" y="5204" width="877" height="1259" xlink:href="shade/13.png"/>
<path d="M1118.3,6355.6V5331.9c0,-1.5,.2,-3,.5,-4.4c.3,-1.5,.7,-2.9,1.3,-4.3c.6,-1.4,1.3,-2.7,2.1,-4c.8,-1.2,1.8,-2.4,2.8,-3.5c1.1,-1,2.3,-2,3.5,-2.8c1.3,-.8,2.6,-1.6,4,-2.1c1.4,-.6,2.8,-1,4.3,-1.3c1.5,-.3,2.9,-.5,4.5,-.5h641.6c1.5,0,3,.2,4.5,.5c1.5,.3,2.9,.7,4.3,1.3c1.4,.5,2.7,1.3,3.9,2.1c1.3,.8,2.5,1.8,3.5,2.8c1.1,1.1,2,2.3,2.9,3.5c.8,1.3,1.5,2.6,2.1,4c.6,1.4,1,2.8,1.3,4.3c.3,1.4,.4,2.9,.4,4.4V6355.6c0,1.5,-.1,3,-.4,4.4c-.3,1.5,-.7,2.9,-1.3,4.3c-.6,1.4,-1.3,2.7,-2.1,4c-.9,1.2,-1.8,2.4,-2.9,3.5c-1,1,-2.2,2,-3.5,2.8c-1.2,.8,-2.5,1.6,-3.9,2.1c-1.4,.6,-2.8,1,-4.3,1.3c-1.5,.3,-3,.5,-4.5,.5H1141.3c-1.6,0,-3,-.2,-4.5,-.5c-1.5,-.3,-2.9,-.7,-4.3,-1.3c-1.4,-.5,-2.7,-1.3,-4,-2.1c-1.2,-.8,-2.4,-1.8,-3.5,-2.8c-1,-1.1,-2,-2.3,-2.8,-3.5c-.8,-1.3,-1.5,-2.6,-2.1,-4c-.6,-1.4,-1,-2.8,-1.3,-4.3c-.3,-1.4,-.5,-2.9,-.5,-4.4Z" class="g0"/>
<g clip-path="url(#c1)">
<path d="M3182.9,5425.7c-264.8,-378.7,-447.8,-140,-780,-243.8c-332.3,-103.7,-187.8,-77.8,-476.7,-197.1c-288.9,-119.3,11.7,665.3,135.8,785c124.1,119.7,249,337.7,434.4,438.8c185.4,101.2,507.6,150.5,623.9,88.6c116.4,-62,62.6,-871.5,62.6,-871.5Z" class="gq"/>
</g>
<image x="1913" y="5204" width="877" height="1259" xlink:href="shade/14.png"/>
<path d="M2022.8,6355.6V5331.9c0,-1.5,.1,-3,.4,-4.4c.3,-1.5,.7,-2.9,1.3,-4.3c.6,-1.4,1.3,-2.7,2.1,-4c.9,-1.2,1.8,-2.4,2.9,-3.5c1.1,-1,2.2,-2,3.5,-2.8c1.2,-.8,2.5,-1.6,3.9,-2.1c1.4,-.6,2.8,-1,4.3,-1.3c1.5,-.3,3,-.5,4.5,-.5h641.7c1.5,0,3,.2,4.4,.5c1.5,.3,2.9,.7,4.3,1.3c1.4,.5,2.7,1.3,4,2.1c1.2,.8,2.4,1.8,3.5,2.8c1,1.1,2,2.3,2.8,3.5c.9,1.3,1.6,2.6,2.1,4c.6,1.4,1,2.8,1.3,4.3c.3,1.4,.5,2.9,.5,4.4V6355.6c0,1.5,-.2,3,-.5,4.4c-.3,1.5,-.7,2.9,-1.3,4.3c-.5,1.4,-1.2,2.7,-2.1,4c-.8,1.2,-1.8,2.4,-2.8,3.5c-1.1,1,-2.3,2,-3.5,2.8c-1.3,.8,-2.6,1.6,-4,2.1c-1.4,.6,-2.8,1,-4.3,1.3c-1.4,.3,-2.9,.5,-4.4,.5H2045.7c-1.5,0,-3,-.2,-4.5,-.5c-1.5,-.3,-2.9,-.7,-4.3,-1.3c-1.4,-.5,-2.7,-1.3,-3.9,-2.1c-1.3,-.8,-2.4,-1.8,-3.5,-2.8c-1.1,-1.1,-2,-2.3,-2.9,-3.5c-.8,-1.3,-1.5,-2.6,-2.1,-4c-.6,-1.4,-1,-2.8,-1.3,-4.3c-.3,-1.4,-.4,-2.9,-.4,-4.4Z" class="g0"/>
<image x="-20" y="4888" width="840" height="1882" xlink:href="shade/15.png"/>
<g clip-path="url(#c1)">
<path d="M-23.8,4918.7c0,0,425.2,-8.1,419.6,220.4c-5.6,228.6,240.6,171.4,263,334.7c22.4,163.3,190.2,224.5,117.5,277.6c-72.8,53,-84,265.3,-84,265.3L546.9,6265.6c0,0,-31.5,118.5,-78.4,175.5c-49.5,59.6,-132.2,119.3,-209.3,134c-73.5,64.3,-341,138.1,-389.4,161c-55.9,26.5,67.2,-305.2,0,-323.5c-67.1,-18.4,-201.4,-632.7,-201.4,-632.7L-23.8,4918.7Z" class="gr"/>
</g>
<image x="104" y="5204" width="877" height="1259" xlink:href="shade/16.png"/>
<path d="M213.9,6355.6V5331.9c0,-1.5,.1,-3,.4,-4.4c.3,-1.5,.8,-2.9,1.3,-4.3c.6,-1.4,1.3,-2.7,2.2,-4c.8,-1.2,1.7,-2.4,2.8,-3.5c1.1,-1,2.2,-2,3.5,-2.8c1.2,-.8,2.5,-1.6,3.9,-2.1c1.4,-.6,2.9,-1,4.3,-1.3c1.5,-.3,3,-.5,4.5,-.5H878.5c1.5,0,3,.2,4.4,.5c1.5,.3,3,.7,4.3,1.3c1.4,.5,2.8,1.3,4,2.1c1.3,.8,2.4,1.8,3.5,2.8c1,1.1,2,2.3,2.8,3.5c.9,1.3,1.6,2.6,2.1,4c.6,1.4,1.1,2.8,1.3,4.3c.3,1.4,.5,2.9,.5,4.4V6355.6c0,1.5,-.2,3,-.5,4.4c-.2,1.5,-.7,2.9,-1.3,4.3c-.5,1.4,-1.2,2.7,-2.1,4c-.8,1.2,-1.8,2.4,-2.8,3.5c-1.1,1,-2.2,2,-3.5,2.8c-1.2,.8,-2.6,1.6,-4,2.1c-1.3,.6,-2.8,1,-4.3,1.3c-1.4,.3,-2.9,.5,-4.4,.5H236.8c-1.5,0,-3,-.2,-4.5,-.5c-1.4,-.3,-2.9,-.7,-4.3,-1.3c-1.4,-.5,-2.7,-1.3,-3.9,-2.1c-1.3,-.8,-2.4,-1.8,-3.5,-2.8c-1.1,-1.1,-2,-2.3,-2.8,-3.5c-.9,-1.3,-1.6,-2.6,-2.2,-4c-.5,-1.4,-1,-2.8,-1.3,-4.3c-.3,-1.4,-.4,-2.9,-.4,-4.4Z" class="g0"/>
<path d="M557.6,5429.6c8,0,14.5,6.7,14.5,15.1c0,8.3,-6.5,15,-14.5,15c-7.9,0,-14.4,-6.7,-14.4,-15c0,-8.4,6.5,-15.1,14.4,-15.1m0,64.6c20.5,0,42,10.4,42,15v7.9H515.7v-7.9c0,-4.6,21.5,-15,41.9,-15m0,-78.2c-15.2,0,-27.5,12.8,-27.5,28.7c0,15.8,12.3,28.7,27.5,28.7c15.2,0,27.5,-12.9,27.5,-28.7c0,-15.9,-12.3,-28.7,-27.5,-28.7Zm0,64.5c-18.3,0,-55,9.6,-55,28.7v21.6h110v-21.6c0,-19.1,-36.6,-28.7,-55,-28.7Z" class="gs"/>
<path d="M1510.8,5416h-97.5c-6,0,-10.8,5.6,-10.8,12.5v75.4c0,6.9,4.8,12.6,10.8,12.6h27.1V5529h43.4v-12.5h27c6,0,10.8,-5.7,10.8,-12.6l.1,-75.4c0,-6.9,-4.9,-12.5,-10.9,-12.5Zm0,87.9h-97.5v-75.4h97.5v75.4Z" class="gs"/>
<path d="M2328.6,5483v25.1l37.9,24l37.9,-24V5483l-37.9,24l-37.9,-24Zm37.9,-64l-59.6,37.7l59.6,37.7l48.8,-30.8V5507h10.8v-50.3L2366.5,5419Z" class="gs"/>
<image x="-63" y="6664" width="3029" height="678" xlink:href="shade/17.png"/>
<g clip-path="url(#c1)">
<path d="M0,6766.5H2933.3v550H0v-550Z" class="gt"/>
</g>
<image x="1019" y="6672" width="866" height="337" xlink:href="shade/18.png"/>
<image x="1054" y="7010" width="125" height="125" xlink:href="shade/19.png"/>
<image x="1288" y="7010" width="125" height="125" xlink:href="shade/20.png"/>
<image x="1522" y="7010" width="125" height="125" xlink:href="shade/21.png"/>
<image x="1756" y="7010" width="125" height="125" xlink:href="shade/22.png"/>
<path d="M0,0H2933.3V186.4H0V0Z" class="gu"/>
<image x="1802" y="-34" width="376" height="246" xlink:href="shade/23.png"/>
<image x="2095" y="-34" width="359" height="246" xlink:href="shade/24.png"/>
<image x="2371" y="-34" width="408" height="246" xlink:href="shade/25.png"/>
<image x="179" y="37" width="718" height="142" xlink:href="shade/26.png"/>
</svg>